<?xml-stylesheet type="text-css" href="/omar-shishani-2.css"?><?xml-stylesheet type="text-css" href="../omar-shishani-2.css"?>

<svg xmlns="http://www.w3.org/2000/svg" viewBox="0 0 26.458 26.458" height="100" width="100">
  <g transform="translate(0 -270.542)"><circle r="12.548" cy="283.817" cx="13.245" stroke="#000" stroke-width=".864" stroke-linecap="round" fill="none"/><path class="star-big-upper-right" d="M15.38 281.58c2.176-1.054 1.979-3.528 2.77-5.543.697 2.267.792 4.638 2.77 5.543-2.459 1.781-1.998 3.311-2.77 5.543-.838-2.703-.285-4.14-2.77-5.543z" fill="#fc0" fill-opacity=".834" stroke="#000" stroke-width=".249"/><path class="star-big-lower" d="M13.69 285.324c-.446 1.821-.214 2.768-2.303 4.254 2.21 1.487 1.508 2.515 2.303 4.253.893-1.778.458-3.253 2.303-4.253-2.09-1.327-1.727-2.557-2.303-4.254z" fill="#ff0080" stroke="#000" stroke-width=".249"/><path class="star-small-lower-left" d="M6.95 287.107c.803-.388.73-1.3 1.021-2.043.258.835.293 1.71 1.022 2.043-.907.657-.737 1.221-1.022 2.044-.308-.996-.104-1.526-1.02-2.044z" fill="#f0f" fill-opacity=".451" stroke="#000" stroke-width=".249"/><path class="star-small-upper-right" d="M13.79 275.74c.803-.389.73-1.301 1.022-2.044.257.836.292 1.71 1.02 2.044-.905.656-.736 1.22-1.02 2.043-.31-.996-.105-1.526-1.022-2.043z" fill="#f0f" fill-opacity=".451" stroke="#000" stroke-width=".249"/><path class="star-small-lower-rig" d="M18.103 288.952c.667-.323.607-1.082.85-1.7.213.695.242 1.422.85 1.7-.755.546-.614 1.016-.85 1.7-.258-.829-.088-1.27-.85-1.7z" fill="#ff0052" stroke="#000" stroke-width=".249"/><path class="star-small-upper-left" d="M5.189 280.293c-.192.712-.107 1.05-1.104 1.637 1.155.618.753.982 1.104 1.636.44-.693.258-1.282 1.104-1.636-1.002-.51-.828-.984-1.104-1.637z" fill="#fc0" fill-opacity=".834" stroke="#000" stroke-width=".249"/></g><path class="star-big-upper-left" d="M12.464 9.06c-1.539-1.184-1.642-2.847-2.147-4.376C9.95 6.54 9.423 8.214 8.17 9.06c1.597.966 1.481 2.89 2.147 4.376.702-1.462.48-3.141 2.147-4.376z" fill="#ff0052" stroke="#000" stroke-width=".249"/>
</svg>