<?xml version="1.0" encoding="UTF-8" standalone="no"?>
<!-- Created with Inkscape (http://www.inkscape.org/) -->

<svg
   xmlns:dc="http://purl.org/dc/elements/1.1/"
   xmlns:cc="http://creativecommons.org/ns#"
   xmlns:rdf="http://www.w3.org/1999/02/22-rdf-syntax-ns#"
   xmlns:svg="http://www.w3.org/2000/svg"
   xmlns="http://www.w3.org/2000/svg"
   xmlns:sodipodi="http://sodipodi.sourceforge.net/DTD/sodipodi-0.dtd"
   xmlns:inkscape="http://www.inkscape.org/namespaces/inkscape"
   width="100"
   height="100"
   viewBox="0 0 26.458333 26.458334"
   version="1.1"
   id="svg8"
   inkscape:version="0.92.4 (5da689c313, 2019-01-14)"
   sodipodi:docname="articles-button.svg">
  <defs
     id="defs2" />
  <sodipodi:namedview
     id="base"
     pagecolor="#ffffff"
     bordercolor="#666666"
     borderopacity="1.0"
     inkscape:pageopacity="0.0"
     inkscape:pageshadow="2"
     inkscape:zoom="4.8526786"
     inkscape:cx="27.105797"
     inkscape:cy="41.292461"
     inkscape:document-units="mm"
     inkscape:current-layer="layer2"
     showgrid="false"
     units="px"
     inkscape:window-width="1600"
     inkscape:window-height="837"
     inkscape:window-x="-8"
     inkscape:window-y="-8"
     inkscape:window-maximized="1" />
  <metadata
     id="metadata5">
    <rdf:RDF>
      <cc:Work
         rdf:about="">
        <dc:format>image/svg+xml</dc:format>
        <dc:type
           rdf:resource="http://purl.org/dc/dcmitype/StillImage" />
        <dc:title />
      </cc:Work>
    </rdf:RDF>
  </metadata>
  <g
     inkscape:label="Circle"
     inkscape:groupmode="layer"
     id="layer1"
     transform="translate(0,-270.54165)"
     style="display:inline">
    <circle
       style="opacity:1;vector-effect:none;fill:#000000;fill-opacity:0;stroke:#000000;stroke-width:0.86371595;stroke-linecap:round;stroke-linejoin:miter;stroke-miterlimit:4;stroke-dasharray:none;stroke-dashoffset:0;stroke-opacity:1"
       id="path815"
       cx="13.245498"
       cy="283.81671"
       r="12.548462" />
  </g>
  <g
     inkscape:groupmode="layer"
     id="layer2"
     inkscape:label="Paper">
    <rect
       style="opacity:1;vector-effect:none;fill:#ffffff;fill-opacity:1;stroke:#000000;stroke-width:0.4856807;stroke-linecap:round;stroke-linejoin:miter;stroke-miterlimit:4;stroke-dasharray:none;stroke-dashoffset:0;stroke-opacity:1"
       id="rect1283"
       width="12.471545"
       height="16.378599"
       x="7.0097251"
       y="5.085762"
       ry="2.4419091" />
  </g>
  <g
     inkscape:groupmode="layer"
     id="layer3"
     inkscape:label="Article Square">
    <rect
       style="opacity:1;vector-effect:none;fill:#0072ff;fill-opacity:0.89655175;stroke:#000000;stroke-width:0.53062105;stroke-linecap:round;stroke-linejoin:miter;stroke-miterlimit:4;stroke-dasharray:none;stroke-dashoffset:0;stroke-opacity:1"
       id="rect1286"
       width="5.0466123"
       height="3.5814667"
       x="8.6033926"
       y="8.9028826"
       ry="0.65117574" />
    <path
       style="fill:none;stroke:#000000;stroke-width:0.303882px;stroke-linecap:round;stroke-linejoin:miter;stroke-opacity:1"
       d="m 8.8855691,14.524702 c 0.2785702,-0.134917 0.4501395,-0.295466 0.759705,-0.162794 0.1159419,0.04969 0.2240623,0.207305 0.3798519,0.162794 0.147579,-0.04216 0.179981,-0.277052 0.325588,-0.325588 0.155464,-0.05182 0.275727,0.221462 0.325588,0.271322 0.08316,0.08317 0.2527,0.181189 0.379854,0.108525 0.07853,-0.04487 0.0892,-0.16449 0.162794,-0.217058 0.02154,-0.01538 0.323049,-0.09214 0.379852,-0.05427 0.07525,0.05017 0.09884,0.153107 0.162794,0.217058 0.126149,0.126151 0.205016,0.133506 0.379852,0.108525 0.241657,-0.03452 0.36139,-0.258297 0.59691,-0.325588 0.284184,-0.08118 0.0853,0.05895 0.21706,0.217059 0.09411,0.112935 0.313431,0.154837 0.434116,0.05427 0.06215,-0.05179 0.04536,-0.166526 0.108525,-0.217059 0.04237,-0.03389 0.109076,-0.0077 0.162794,0 0.07383,0.01057 0.159763,0.0065 0.217058,0.05427 0.06215,0.05179 0.05133,0.159858 0.108525,0.217059 0.102678,0.102678 0.257369,0.156333 0.379852,0.05427 0.06948,-0.0579 0.108525,-0.144705 0.162794,-0.217058"
       id="path1296"
       inkscape:connector-curvature="0" />
    <path
       style="fill:none;stroke:#000000;stroke-width:0.303882px;stroke-linecap:round;stroke-linejoin:miter;stroke-opacity:1"
       d="m 15.614386,14.524702 c 0.108525,-0.03618 0.212744,-0.127337 0.325587,-0.108525 0.05352,0.009 -0.03837,0.124422 0,0.162794 0.111132,0.111131 0.356218,-0.152665 0.379853,-0.162794 0.298439,-0.127903 0.03264,0.166398 0.379853,0.108525 0.06432,-0.01068 0.05427,-0.126618 0.108524,-0.162794 0.203916,-0.135944 0.198946,-0.02584 0.379852,0 0.07163,0.01022 0.144706,0 0.217059,0"
       id="path1298"
       inkscape:connector-curvature="0" />
    <path
       style="fill:none;stroke:#000000;stroke-width:0.31666797px;stroke-linecap:round;stroke-linejoin:round;stroke-opacity:1"
       d="m 8.7967315,15.935583 c 0.1178541,-0.01809 0.2369284,-0.0304 0.3535628,-0.05427 0.1269802,-0.02598 0.271945,-0.118978 0.4124901,-0.05427 0.035134,0.01618 -0.032687,0.08846 0,0.108525 0.049031,0.0301 0.1178483,0 0.1767806,0 0.078571,0 0.1674913,0.03589 0.2357084,0 0.2138266,-0.112522 0.091021,-0.330531 0.4124916,-0.271325 0.04307,0.0079 0.01964,0.09044 0.05893,0.108525 0.05271,0.02426 0.117861,0 0.176783,0 0.07857,0 0.16016,0.01989 0.235708,0 0.04974,-0.0131 0.40962,-0.271324 0.41249,-0.271324 0.05893,0 -0.03269,0.117643 0,0.162794 0.05447,0.07525 0.161139,0.103929 0.235707,0.162794 0.176782,0.139538 0.145826,0.232956 0.412491,0.162794 0.0681,-0.01792 0.115293,-0.07617 0.176781,-0.108525 0.206446,-0.108639 0.404446,-0.194861 0.648198,-0.162794 0.0615,0.008 0.122852,0.02589 0.176782,0.05427 0.136934,0.07206 0.225045,0.236772 0.412491,0.162794 0.451832,-0.17832 0.01741,-0.151872 0.471417,-0.271324 0.249436,-0.06562 0.146715,0.07357 0.412489,0.108525 0.06612,0.0087 0.395591,-0.153903 0.412489,-0.162794 0.0615,-0.03236 0.106929,-0.119252 0.176782,-0.108536 0.0822,0.01262 0.112763,0.11367 0.176781,0.162794 0.06485,0.04976 0.342931,0.207908 0.41249,0.217059 0.0615,0.008 0.117052,-0.03855 0.176782,-0.05427 0.07787,-0.02049 0.159876,-0.02808 0.23571,-0.05427 0.08226,-0.0284 0.151244,-0.0863 0.235707,-0.108524 0.05666,-0.01491 0.117849,0 0.176782,0 0.05893,0 0.120119,-0.01491 0.176781,0 0.239855,0.06311 0.207011,0.178097 0.471417,0.108524 0.26544,-0.06984 0.08012,-0.195977 0.412491,-0.108524 0.0681,0.01792 0.208453,0.0502 0.17678,0.108524 -0.03513,0.06472 -0.157138,0 -0.235709,0"
       id="path1300"
       inkscape:connector-curvature="0" />
    <path
       style="fill:none;stroke:#000000;stroke-width:0.303882px;stroke-linecap:round;stroke-linejoin:miter;stroke-opacity:1"
       d="m 14.800415,9.5939736 c 0.05427,-0.1085293 0.07699,-0.2397885 0.162794,-0.3255883 0.03837,-0.038372 0.108525,0 0.162794,0 0.05427,0 0.108525,0 0.162794,0 0.07235,0 0.150556,-0.028501 0.217058,0 0.07054,0.030231 0.100348,0.1181885 0.162794,0.162794 0.07724,0.055166 0.319112,0.1851998 0.434118,0.1085292 0.153217,-0.1021446 0.02767,-0.3681491 0.325588,-0.3255886 0.07598,0.010854 0.100348,0.1181888 0.162794,0.1627942 0.06582,0.047018 0.151234,0.061511 0.217058,0.1085293 0.209432,0.1495943 0.105287,0.2026827 0.379853,0.2713247 0.0702,0.01755 0.156857,0.04013 0.217059,0 0.09764,-0.065099 0.09595,-0.3193008 0.217058,-0.3798541 0.271324,-0.1356618 0.217058,0.029394 0.217058,0.1627933"
       id="path1314"
       inkscape:connector-curvature="0" />
    <path
       style="fill:none;stroke:#000000;stroke-width:0.303882px;stroke-linecap:round;stroke-linejoin:miter;stroke-opacity:1"
       d="m 14.908941,10.96376 c 0.108525,-0.09044 0.196491,-0.213947 0.325588,-0.271323 0.05227,-0.02324 0.110225,0.03173 0.162794,0.05427 0.07435,0.03186 0.146824,0.06839 0.21706,0.108525 0.05662,0.03236 0.09823,0.117751 0.162794,0.108525 0.140702,-0.0201 0.373656,-0.42016 0.59691,-0.271324 0.159133,0.10609 0.01137,0.374195 0.325588,0.217059 0.05833,-0.02917 0.05019,-0.133628 0.108525,-0.162794 0.147685,-0.07384 0.248483,0.03551 0.379852,0.05427 0.07163,0.01022 0.144706,0 0.217058,0 0.05427,0 0.110616,-0.01491 0.162794,0 0.07778,0.02222 0.144706,0.07235 0.217058,0.108524"
       id="path1316"
       inkscape:connector-curvature="0" />
    <path
       style="fill:none;stroke:#000000;stroke-width:0.303882px;stroke-linecap:round;stroke-linejoin:miter;stroke-opacity:1"
       d="m 15.01089,12.467277 c 0.07766,-0.1553 0.07171,-0.271322 0.271322,-0.271322 0.07459,0 0.143229,0.04371 0.21706,0.05427 0.05372,0.0077 0.112912,-0.02138 0.162794,0 0.08313,0.03563 0.130096,0.137947 0.217058,0.162794 0.055,0.01571 0.110225,-0.03173 0.162794,-0.05427 0.08652,-0.03708 0.320429,-0.185532 0.434117,-0.162794 0.03966,0.0079 0.02567,0.07993 0.05427,0.108524 0.0481,0.04811 0.330198,0.209966 0.379853,0.217059 0.129092,0.01845 0.305983,-0.180124 0.379852,-0.217059 0.134852,-0.06743 0.240599,-0.05427 0.379852,-0.05427"
       id="path1320"
       inkscape:connector-curvature="0" />
    <rect
       style="opacity:1;vector-effect:none;fill:#c700ff;fill-opacity:1;stroke:#000000;stroke-width:0.53062105;stroke-linecap:round;stroke-linejoin:miter;stroke-miterlimit:4;stroke-dasharray:none;stroke-dashoffset:0;stroke-opacity:1"
       id="rect1328"
       width="9.2090158"
       height="1.151127"
       x="8.5462656"
       y="6.4299245"
       ry="0.49882171" />
    <rect
       style="opacity:1;vector-effect:none;fill:#00ff5f;fill-opacity:1;stroke:#000000;stroke-width:0.53062105;stroke-linecap:butt;stroke-linejoin:round;stroke-miterlimit:4;stroke-dasharray:none;stroke-dashoffset:0;stroke-opacity:1"
       id="rect1342"
       width="8.4415979"
       height="0.88253069"
       x="8.9683466"
       y="16.943554"
       ry="0.18786451" />
    <rect
       style="opacity:0.98999999;vector-effect:none;fill:#ffac00;fill-opacity:1;stroke:#000000;stroke-width:0.53062105;stroke-linecap:butt;stroke-linejoin:round;stroke-miterlimit:4;stroke-dasharray:none;stroke-dashoffset:0;stroke-opacity:1"
       id="rect1344"
       width="3.7219775"
       height="0.92090166"
       x="8.9842396"
       y="18.764799"
       ry="0.10852929" />
    <rect
       style="opacity:1;vector-effect:none;fill:#ff0092;fill-opacity:1;stroke:#000000;stroke-width:0.53062105;stroke-linecap:round;stroke-linejoin:round;stroke-miterlimit:4;stroke-dasharray:none;stroke-dashoffset:0;stroke-opacity:1"
       id="rect1350"
       width="3.83709"
       height="0.88253069"
       x="13.534482"
       y="18.790012"
       ry="0.35272023" />
    <path
       sodipodi:type="star"
       style="opacity:0.98999999;vector-effect:none;fill:#ff00b7;fill-opacity:1;stroke:#000000;stroke-width:0.16309135;stroke-linecap:round;stroke-linejoin:round;stroke-miterlimit:4;stroke-dasharray:none;stroke-dashoffset:0;stroke-opacity:1"
       id="path1364"
       sodipodi:sides="5"
       sodipodi:cx="12.246816"
       sodipodi:cy="10.263751"
       sodipodi:r1="0.57713729"
       sodipodi:r2="0.28856862"
       sodipodi:arg1="-0.73665631"
       sodipodi:arg2="-0.10833778"
       inkscape:flatsided="false"
       inkscape:rounded="0.1"
       inkscape:randomized="0"
       d="m 12.674312,9.8760216 c 0.02575,0.028389 -0.144764,0.3184264 -0.14062,0.3565274 0.0041,0.0381 0.233023,0.2847 0.21398,0.31796 -0.01904,0.03326 -0.347576,-0.03928 -0.382532,-0.02356 -0.03496,0.01572 -0.198758,0.309595 -0.236275,0.301762 -0.03752,-0.0078 -0.07005,-0.342703 -0.0958,-0.371091 -0.02575,-0.02839 -0.355861,-0.09336 -0.360005,-0.131461 -0.0041,-0.0381 0.304283,-0.172523 0.323326,-0.205783 0.01904,-0.03326 -0.02118,-0.3672943 0.01378,-0.3830094 0.03496,-0.015715 0.258107,0.2360778 0.295624,0.2439105 0.03752,0.00783 0.342773,-0.1336401 0.368521,-0.1052515 z"
       inkscape:transform-center-x="0.059105002"
       inkscape:transform-center-y="0.085036345" />
    <path
       style="fill:#00ff30;fill-opacity:0.89655175;stroke:#000000;stroke-width:0.18950754;stroke-linecap:round;stroke-linejoin:round;stroke-miterlimit:4;stroke-dasharray:none;stroke-opacity:1"
       d="m 10.149936,12.187252 v -0.949631 c 0,0 0.617261,0.351363 0.607764,0.313377 -0.0095,-0.03798 -0.607764,-0.930637 -0.607764,-0.930637 L 10.68173,10.848271 10.083461,9.8321662 9.5991491,10.7723 10.14044,10.601366 9.5516677,11.532007 10.102454,11.190138"
       id="path1371"
       inkscape:connector-curvature="0" />
  </g>
</svg>
