<svg width="150mm" height="100mm" version="1.1" viewBox="0 0 150 100" xmlns="http://www.w3.org/2000/svg">
 <g transform="translate(0,-197)">
  <g stroke="#000" stroke-linecap="round" stroke-linejoin="round" stroke-opacity=".90233">
   <rect x="8.9082" y="207.86" width="114.31" height="82.306" ry="2.3663" fill="#f55" stroke-width="1.4206" style="paint-order:normal"/>
   <rect x="18.711" y="210.3" width="46.76" height="71.645" ry="2.2236" fill="#ffe680" stroke-width="1.3966" style="paint-order:normal"/>
   <rect x="65.471" y="210.3" width="46.76" height="71.645" ry="2.2236" fill="#ffe680" stroke-width="1.3966" style="paint-order:normal"/>
  </g>
  <path d="m18.711 281.95c7.1356-4.014 14.627-6.6633 22.644-6.7435 13.409 0.51569 16.188 4.4601 24.117 6.7435 7.4163-2.323 7.9361-5.0459 22.917-5.9231 14.372-0.0141 16.841 3.656 23.843 5.9231" fill="none" stroke="#000" stroke-width="1.2943"/>
  <g fill="#ffe680">
   <path d="m18.711 210.3c8.0592-4.7438 16.223-6.7787 24.477-6.4533 11.288-0.23319 17.583 2.6176 22.284 6.4533 6.6469-3.7278 13.626-7.1926 24.87-7.2806 11.729-0.0355 17.057 3.4848 21.89 7.2806" stroke="#000" stroke-linecap="round" stroke-linejoin="round" stroke-width="1.2943"/>
   <rect x="20.625" y="210.09" width="43.361" height="1.4624" ry=".73121" stroke-width="0" style="paint-order:normal"/>
   <rect x="67.861" y="210.16" width="43.141" height="1.6818" ry=".3656" stroke-width="0" style="paint-order:normal"/>
  </g>
  <g fill="none" stroke="#5f81c9" stroke-linecap="round" stroke-width="2.4197">
   <path d="m23.54 215.84c5.8944-2.2051 11.926-3.1722 18.096-2.8954"/>
   <path d="m45.98 213.16c7.2019-0.36205 10.839 0.93928 13.96 2.4818"/>
   <path d="m24.16 222.05c15.089-3.6448 26.688-3.8 34.332 0"/>
   <path d="m24.781 228.87c4.4854-1.0127 6.7064-2.8881 16.545-1.8613"/>
   <path d="m60.456 256.92c-5.8944-2.2051-11.926-3.1722-18.096-2.8954"/>
   <path d="m38.017 254.23c-7.2019-0.36204-10.839 0.93929-13.96 2.4818"/>
   <path d="m59.836 263.12c-15.089-3.6448-26.688-3.8-34.332 0"/>
   <path d="m59.215 269.95c-4.4854-1.0127-6.7064-2.8881-16.545-1.8614"/>
   <path d="m107.09 236.86c-5.8944-2.2051-11.926-3.1722-18.096-2.8954"/>
   <path d="m84.654 234.17c-7.2019-0.36203-10.839 0.93929-13.96 2.4818"/>
   <path d="m106.47 243.06c-15.089-3.6448-26.688-3.8-34.332 0"/>
   <path d="m105.85 249.89c-4.4854-1.0127-6.7064-2.8881-16.545-1.8614"/>
   <path d="m70.694 257.95c5.8944-2.2051 11.926-3.1722 18.096-2.8954"/>
   <path d="m93.134 255.26c7.2019-0.36204 10.839 0.93929 13.96 2.4818"/>
   <path d="m71.315 264.16c15.089-3.6448 26.688-3.8 34.332 0"/>
   <path d="m71.935 270.98c4.4854-1.0127 6.7064-2.8881 16.545-1.8614"/>
   <path d="m24.368 244.82c5.8944-2.2051 11.926-3.1722 18.096-2.8954"/>
   <path d="m46.807 242.13c7.2019-0.36204 10.839 0.93928 13.96 2.4818"/>
   <path d="m24.988 251.02c15.089-3.6448 26.688-3.8 34.332 0"/>
   <path d="m23.954 236.75c5.8944-2.2051 11.926-3.1722 18.096-2.8954"/>
   <path d="m46.394 234.06c7.2019-0.36204 10.839 0.93929 13.96 2.4818"/>
   <path d="m70.074 231.38c5.8944-2.2051 11.926-3.1722 18.096-2.8954"/>
   <path d="m92.514 228.69c7.2019-0.36204 10.839 0.93929 13.96 2.4818"/>
   <path d="m105.03 218.47c-4.4854-1.0127-6.7064-2.8881-16.545-1.8614"/>
   <path d="m69.867 226.53c5.8944-2.2051 11.926-3.1722 18.096-2.8954"/>
   <path d="m106.27 213.73c-15.089-3.6448-26.688-3.8-34.332 0"/>
  </g>
  <g fill="#ffe680">
   <rect x="18.711" y="281.95" width="93.76" height="4.2151" ry="1.454e-14" stroke="#000" stroke-linecap="round" stroke-linejoin="round" stroke-width="1.1254" style="paint-order:normal"/>
   <rect x="22.196" y="280.99" width="38.882" height="2.275" ry="1.454e-14" stroke-width="0" style="paint-order:normal"/>
   <rect x="70.384" y="281.2" width="38.365" height="1.6545" ry="1.454e-14" stroke-width="0" style="paint-order:normal"/>
  </g>
 </g>
</svg>
