<?xml version="1.0" encoding="utf-8"?>
<!-- Generator: Adobe Illustrator 24.1.1, SVG Export Plug-In . SVG Version: 6.00 Build 0)  -->
<svg version="1.1"
	 id="svg821" inkscape:version="0.92.4 (5da689c313, 2019-01-14)" sodipodi:docname="business-card.svg" xmlns:cc="http://creativecommons.org/ns#" xmlns:dc="http://purl.org/dc/elements/1.1/" xmlns:inkscape="http://www.inkscape.org/namespaces/inkscape" xmlns:rdf="http://www.w3.org/1999/02/22-rdf-syntax-ns#" xmlns:sodipodi="http://sodipodi.sourceforge.net/DTD/sodipodi-0.dtd" xmlns:svg="http://www.w3.org/2000/svg"
	 xmlns="http://www.w3.org/2000/svg" xmlns:xlink="http://www.w3.org/1999/xlink" x="0px" y="0px" viewBox="0 0 252 144"
	 style="enable-background:new 0 0 252 144;" xml:space="preserve">
<style type="text/css">
	.st0{opacity:0.2;fill:#818181;stroke:#000000;stroke-width:0.9935;stroke-miterlimit:11.3386;}
	.st1{opacity:0.2;fill:#9955FF;stroke:#000000;stroke-width:0.9935;stroke-linecap:round;stroke-miterlimit:11.3386;}
	.st2{enable-background:new    ;}
	.st3{opacity:0.63;}
	.st4{fill:none;stroke:#000000;stroke-width:2.625;stroke-linecap:round;stroke-miterlimit:11.3386;}
	.st5{fill:none;stroke:#000000;stroke-width:2.6249;stroke-linecap:round;stroke-miterlimit:11.3386;}
	.st6{fill:#808080;}
	.st7{fill:#BA823E;stroke:#000000;stroke-width:0.25;stroke-miterlimit:10;}
	.st8{fill:#8E8E8E;stroke:#000000;stroke-miterlimit:10;}
</style>
<sodipodi:namedview  bordercolor="#666666" borderopacity="1.0" id="base" inkscape:current-layer="layer1" inkscape:cx="183.2891" inkscape:cy="93.068427" inkscape:document-units="mm" inkscape:pageopacity="0.0" inkscape:pageshadow="2" inkscape:window-height="837" inkscape:window-maximized="1" inkscape:window-width="1600" inkscape:window-x="-8" inkscape:window-y="-8" inkscape:zoom="1.979899" pagecolor="#ffffff" showgrid="false" showguides="false" units="in">
	</sodipodi:namedview>
<g id="layer1" transform="translate(0,-246.19997)" inkscape:groupmode="layer" inkscape:label="Layer 1">
	<path id="path1378" inkscape:connector-curvature="0" class="st0" d="M199.2,303.3c16.9,2.2,17.9,13.1,17.9,19.7v36.1
		c-1.5,12.9-9.7,16.7-17.9,17.6H120c17.1-8.8,26.3-20.1,31.5-32.7h36c8.2-0.4,7.3-11.7,0-11.7h-32.7c6.4-21.2-2.5-58-33.7-71h83.4
		c19,1.8,16.9,29.1,0,30.6h-30.8c-5.2,0-7.2,10.3,0,11.4H199.2z"/>
	<path id="path1380" inkscape:connector-curvature="0" class="st1" d="M89.2,259.2c-32.7,0-59.2,26.5-59.2,59.2
		c0,32.7,26.5,59.2,59.2,59.2c0,0,0,0,0,0c32.7,0,59.2-26.5,59.2-59.2C148.5,285.7,121.9,259.2,89.2,259.2L89.2,259.2z M89.7,308.4
		c5.3,0,9.6,4.3,9.6,9.6c0,5.3-4.3,9.6-9.6,9.6c-5.3,0-9.6-4.3-9.6-9.6l0,0C80.1,312.7,84.4,308.4,89.7,308.4L89.7,308.4z"/>
	<g>
		<g class="st2">
			<path d="M13,367.1c0-2.9,1.6-4.7,3.9-4.7s3.9,1.8,3.9,4.7c0,2.9-1.6,4.8-3.9,4.8S13,370.1,13,367.1z M19.7,367.1
				c0-2.3-1.1-3.7-2.7-3.7s-2.7,1.4-2.7,3.7s1.1,3.8,2.7,3.8S19.7,369.4,19.7,367.1z"/>
			<path d="M22.8,364.9h1l0.1,1h0c0.6-0.6,1.3-1.2,2.1-1.2c1,0,1.6,0.5,1.9,1.3c0.7-0.8,1.4-1.3,2.2-1.3c1.4,0,2.1,0.9,2.1,2.7v4.3
				H31v-4.2c0-1.3-0.4-1.8-1.3-1.8c-0.5,0-1.1,0.3-1.7,1v4.9h-1.2v-4.2c0-1.3-0.4-1.8-1.3-1.8c-0.5,0-1.1,0.3-1.7,1v4.9h-1.2V364.9z
				"/>
			<path d="M33.9,370c0-1.5,1.3-2.2,4.2-2.5c0-0.9-0.3-1.7-1.4-1.7c-0.8,0-1.5,0.4-2,0.7l-0.5-0.8c0.6-0.4,1.6-0.9,2.7-0.9
				c1.7,0,2.4,1.1,2.4,2.8v4.2h-1l-0.1-0.8h0c-0.6,0.5-1.4,1-2.3,1C34.8,371.9,33.9,371.2,33.9,370z M38.1,370.1v-1.9
				c-2.3,0.3-3.1,0.8-3.1,1.7c0,0.8,0.5,1.1,1.2,1.1C36.9,371,37.5,370.7,38.1,370.1z"/>
			<path d="M41.4,364.9h1l0.1,1.2h0c0.5-0.9,1.2-1.4,1.9-1.4c0.3,0,0.5,0,0.7,0.1l-0.2,1c-0.2-0.1-0.4-0.1-0.7-0.1
				c-0.6,0-1.3,0.4-1.7,1.6v4.4h-1.2V364.9z"/>
			<path d="M45.7,370.6l0.7-0.8c0.7,0.7,1.6,1.1,2.5,1.1c1.2,0,1.9-0.6,1.9-1.5c0-0.9-0.7-1.2-1.5-1.6l-1.3-0.6
				c-0.9-0.4-1.9-1-1.9-2.4c0-1.4,1.2-2.4,2.9-2.4c1.1,0,2.1,0.5,2.7,1.1l-0.6,0.8c-0.6-0.5-1.2-0.9-2.1-0.9c-1,0-1.7,0.5-1.7,1.3
				c0,0.9,0.8,1.2,1.5,1.5l1.3,0.6c1.1,0.5,1.9,1.1,1.9,2.5c0,1.5-1.2,2.6-3.1,2.6C47.6,371.9,46.5,371.4,45.7,370.6z"/>
			<path d="M53.7,361.8h1.2v2.7l0,1.4c0.6-0.6,1.3-1.1,2.3-1.1c1.4,0,2.1,0.9,2.1,2.7v4.3H58v-4.2c0-1.3-0.4-1.8-1.3-1.8
				c-0.7,0-1.2,0.4-1.9,1v4.9h-1.2V361.8z"/>
			<path d="M61.2,362.8c0-0.5,0.3-0.7,0.8-0.7c0.4,0,0.8,0.3,0.8,0.7c0,0.4-0.3,0.7-0.8,0.7C61.5,363.5,61.2,363.2,61.2,362.8z
				 M61.4,364.9h1.2v6.8h-1.2V364.9z"/>
			<path d="M64.1,371l0.6-0.8c0.6,0.5,1.2,0.8,2,0.8c0.9,0,1.3-0.5,1.3-1.1c0-0.7-0.8-1-1.6-1.3c-1-0.3-2-0.8-2-2
				c0-1.1,0.9-1.9,2.3-1.9c0.8,0,1.6,0.3,2.1,0.8l-0.6,0.7c-0.5-0.3-1-0.6-1.6-0.6c-0.9,0-1.3,0.5-1.3,1c0,0.6,0.7,0.9,1.5,1.2
				c1,0.4,2.1,0.8,2.1,2.1c0,1.1-0.9,2-2.5,2C65.6,371.9,64.7,371.5,64.1,371z"/>
			<path d="M70.7,361.8h1.2v2.7l0,1.4c0.6-0.6,1.3-1.1,2.3-1.1c1.4,0,2.1,0.9,2.1,2.7v4.3H75v-4.2c0-1.3-0.4-1.8-1.3-1.8
				c-0.7,0-1.2,0.4-1.9,1v4.9h-1.2V361.8z"/>
			<path d="M77.9,370c0-1.5,1.3-2.2,4.2-2.5c0-0.9-0.3-1.7-1.4-1.7c-0.8,0-1.5,0.4-2,0.7l-0.5-0.8c0.6-0.4,1.6-0.9,2.7-0.9
				c1.7,0,2.4,1.1,2.4,2.8v4.2h-1l-0.1-0.8h0c-0.6,0.5-1.4,1-2.3,1C78.7,371.9,77.9,371.2,77.9,370z M82,370.1v-1.9
				c-2.3,0.3-3.1,0.8-3.1,1.7c0,0.8,0.5,1.1,1.2,1.1C80.8,371,81.4,370.7,82,370.1z"/>
			<path d="M85.3,364.9h1l0.1,1h0c0.6-0.6,1.3-1.1,2.3-1.1c1.4,0,2.1,0.9,2.1,2.7v4.3h-1.2v-4.2c0-1.3-0.4-1.8-1.3-1.8
				c-0.7,0-1.2,0.4-1.9,1v4.9h-1.2V364.9z"/>
			<path d="M92.8,362.8c0-0.5,0.3-0.7,0.8-0.7c0.4,0,0.8,0.3,0.8,0.7c0,0.4-0.3,0.7-0.8,0.7C93.1,363.5,92.8,363.2,92.8,362.8z
				 M93,364.9h1.2v6.8H93V364.9z"/>
			<path d="M96.2,371.1c0-0.5,0.4-0.9,0.8-0.9c0.5,0,0.8,0.4,0.8,0.9c0,0.5-0.4,0.9-0.8,0.9C96.6,371.9,96.2,371.6,96.2,371.1z"/>
			<path d="M99.4,368.4c0-2.3,1.5-3.6,3.3-3.6c0.9,0,1.5,0.4,2,0.8l-0.6,0.8c-0.4-0.4-0.8-0.6-1.4-0.6c-1.2,0-2.1,1.1-2.1,2.6
				c0,1.6,0.9,2.6,2.1,2.6c0.6,0,1.2-0.3,1.6-0.7l0.5,0.8c-0.6,0.5-1.4,0.9-2.2,0.9C100.8,371.9,99.4,370.6,99.4,368.4z"/>
			<path d="M105.8,368.4c0-2.3,1.5-3.6,3.2-3.6c1.7,0,3.2,1.3,3.2,3.6c0,2.3-1.5,3.6-3.2,3.6C107.3,371.9,105.8,370.6,105.8,368.4z
				 M110.9,368.4c0-1.6-0.8-2.6-2-2.6c-1.2,0-2,1.1-2,2.6c0,1.6,0.8,2.6,2,2.6C110.1,371,110.9,369.9,110.9,368.4z"/>
			<path d="M113.9,364.9h1l0.1,1h0c0.6-0.6,1.3-1.2,2.1-1.2c1,0,1.6,0.5,1.9,1.3c0.7-0.8,1.4-1.3,2.2-1.3c1.4,0,2.1,0.9,2.1,2.7v4.3
				h-1.2v-4.2c0-1.3-0.4-1.8-1.3-1.8c-0.5,0-1.1,0.3-1.7,1v4.9H118v-4.2c0-1.3-0.4-1.8-1.3-1.8c-0.5,0-1.1,0.3-1.7,1v4.9h-1.2V364.9
				z"/>
			<path d="M128.2,361.8h0.8l-3.7,12.2h-0.8L128.2,361.8z"/>
			<path d="M129.9,368.4c0-2.3,1.5-3.6,3.3-3.6c0.9,0,1.5,0.4,2,0.8l-0.6,0.8c-0.4-0.4-0.8-0.6-1.4-0.6c-1.2,0-2.1,1.1-2.1,2.6
				c0,1.6,0.9,2.6,2.1,2.6c0.6,0,1.2-0.3,1.6-0.7l0.5,0.8c-0.6,0.5-1.4,0.9-2.2,0.9C131.3,371.9,129.9,370.6,129.9,368.4z"/>
			<path d="M136.3,368.4c0-2.3,1.5-3.6,3.2-3.6c1.7,0,3.2,1.3,3.2,3.6c0,2.3-1.5,3.6-3.2,3.6C137.8,371.9,136.3,370.6,136.3,368.4z
				 M141.4,368.4c0-1.6-0.8-2.6-2-2.6c-1.2,0-2,1.1-2,2.6c0,1.6,0.8,2.6,2,2.6C140.6,371,141.4,369.9,141.4,368.4z"/>
			<path d="M144.4,364.9h1l0.1,1h0c0.6-0.6,1.3-1.1,2.3-1.1c1.4,0,2.1,0.9,2.1,2.7v4.3h-1.2v-4.2c0-1.3-0.4-1.8-1.3-1.8
				c-0.7,0-1.2,0.4-1.9,1v4.9h-1.2V364.9z"/>
			<path d="M152.2,369.7v-3.8h-1V365l1.1-0.1l0.1-1.9h1v1.9h1.8v0.9h-1.8v3.8c0,0.8,0.3,1.3,1.1,1.3c0.2,0,0.6-0.1,0.8-0.2l0.2,0.9
				c-0.4,0.1-0.8,0.3-1.3,0.3C152.7,371.9,152.2,371,152.2,369.7z"/>
			<path d="M156.8,364.9h1l0.1,1.2h0c0.5-0.9,1.2-1.4,1.9-1.4c0.3,0,0.5,0,0.7,0.1l-0.2,1c-0.2-0.1-0.4-0.1-0.7-0.1
				c-0.6,0-1.3,0.4-1.7,1.6v4.4h-1.2V364.9z"/>
			<path d="M161.2,370c0-1.5,1.3-2.2,4.2-2.5c0-0.9-0.3-1.7-1.4-1.7c-0.8,0-1.5,0.4-2,0.7l-0.5-0.8c0.6-0.4,1.6-0.9,2.7-0.9
				c1.7,0,2.4,1.1,2.4,2.8v4.2h-1l-0.1-0.8h0c-0.6,0.5-1.4,1-2.3,1C162.1,371.9,161.2,371.2,161.2,370z M165.4,370.1v-1.9
				c-2.3,0.3-3.1,0.8-3.1,1.7c0,0.8,0.5,1.1,1.2,1.1C164.2,371,164.7,370.7,165.4,370.1z"/>
			<path d="M168.2,368.4c0-2.3,1.5-3.6,3.3-3.6c0.9,0,1.5,0.4,2,0.8l-0.6,0.8c-0.4-0.4-0.8-0.6-1.4-0.6c-1.2,0-2.1,1.1-2.1,2.6
				c0,1.6,0.9,2.6,2.1,2.6c0.6,0,1.2-0.3,1.6-0.7l0.5,0.8c-0.6,0.5-1.4,0.9-2.2,0.9C169.6,371.9,168.2,370.6,168.2,368.4z"/>
			<path d="M175.3,369.7v-3.8h-1V365l1.1-0.1l0.1-1.9h1v1.9h1.8v0.9h-1.8v3.8c0,0.8,0.3,1.3,1.1,1.3c0.2,0,0.6-0.1,0.8-0.2l0.2,0.9
				c-0.4,0.1-0.8,0.3-1.3,0.3C175.8,371.9,175.3,371,175.3,369.7z"/>
			<path d="M179.6,362.8c0-0.5,0.3-0.7,0.8-0.7c0.4,0,0.8,0.3,0.8,0.7c0,0.4-0.3,0.7-0.8,0.7C179.9,363.5,179.6,363.2,179.6,362.8z
				 M179.8,364.9h1.2v6.8h-1.2V364.9z"/>
			<path d="M183.2,364.9h1l0.1,1h0c0.6-0.6,1.3-1.1,2.3-1.1c1.4,0,2.1,0.9,2.1,2.7v4.3h-1.2v-4.2c0-1.3-0.4-1.8-1.3-1.8
				c-0.7,0-1.2,0.4-1.9,1v4.9h-1.2V364.9z"/>
			<path d="M190.4,373.1c0-0.6,0.4-1.1,1-1.5v-0.1c-0.3-0.2-0.6-0.6-0.6-1.1c0-0.6,0.4-1,0.8-1.3V369c-0.5-0.4-0.9-1-0.9-1.8
				c0-1.5,1.2-2.4,2.6-2.4c0.4,0,0.7,0.1,1,0.2h2.4v0.9h-1.4c0.3,0.3,0.6,0.8,0.6,1.4c0,1.5-1.1,2.4-2.5,2.4c-0.3,0-0.7-0.1-1-0.2
				c-0.2,0.2-0.4,0.4-0.4,0.8c0,0.4,0.3,0.7,1.2,0.7h1.3c1.6,0,2.4,0.5,2.4,1.6c0,1.3-1.3,2.4-3.4,2.4
				C191.5,374.9,190.4,374.2,190.4,373.1z M195.5,372.7c0-0.6-0.5-0.8-1.4-0.8H193c-0.3,0-0.6,0-0.9-0.1c-0.5,0.3-0.7,0.8-0.7,1.1
				c0,0.7,0.7,1.2,2,1.2C194.7,374.1,195.5,373.4,195.5,372.7z M194.6,367.2c0-1-0.6-1.6-1.4-1.6s-1.4,0.6-1.4,1.6
				c0,1,0.7,1.6,1.4,1.6S194.6,368.2,194.6,367.2z"/>
		</g>
	</g>
	<g id="g8474" transform="rotate(-90,14.686981,304.97093)" class="st3">
		<path id="path3915" inkscape:connector-curvature="0" class="st4" d="M72.2,312.2H30.3"/>
		<path id="path394" inkscape:connector-curvature="0" class="st5" d="M37.2,300.2H12.6"/>
		<path id="path411" inkscape:connector-curvature="0" class="st5" d="M37.3,300.3l18.2,11.7"/>
		<circle id="path3921" class="st6" cx="28.4" cy="312.3" r="3.6"/>
		<circle id="path3921-8" class="st6" cx="12.1" cy="300.2" r="3.6"/>
	</g>
</g>
<rect x="231.7" y="102.8" transform="matrix(0.993 0.1182 -0.1182 0.993 15.8682 -26.858)" class="st7" width="5.3" height="35.1"/>
<rect x="222.7" y="90.6" transform="matrix(0.993 0.1182 -0.1182 0.993 13.0176 -25.8955)" class="st8" width="4.3" height="12.4"/>
<rect x="224.7" y="95.2" transform="matrix(0.993 0.1182 -0.1182 0.993 13.3763 -27.3242)" class="st8" width="24.8" height="7.8"/>
</svg>
