<?xml version="1.0" encoding="utf-8"?>
<!-- Generator: Adobe Illustrator 24.1.1, SVG Export Plug-In . SVG Version: 6.00 Build 0)  -->
<svg version="1.1"
	 id="svg821" inkscape:version="0.92.4 (5da689c313, 2019-01-14)" sodipodi:docname="business-card-front.svg" xmlns:cc="http://creativecommons.org/ns#" xmlns:dc="http://purl.org/dc/elements/1.1/" xmlns:inkscape="http://www.inkscape.org/namespaces/inkscape" xmlns:rdf="http://www.w3.org/1999/02/22-rdf-syntax-ns#" xmlns:sodipodi="http://sodipodi.sourceforge.net/DTD/sodipodi-0.dtd" xmlns:svg="http://www.w3.org/2000/svg"
	 xmlns="http://www.w3.org/2000/svg" xmlns:xlink="http://www.w3.org/1999/xlink" x="0px" y="0px" viewBox="0 0 252 144"
	 style="enable-background:new 0 0 252 144;" xml:space="preserve">
<style type="text/css">
	.st0{fill:#818181;stroke:#000000;stroke-width:0.9935;stroke-miterlimit:11.3386;}
	.st1{fill:#9955FF;stroke:#000000;stroke-width:0.9935;stroke-linecap:round;stroke-miterlimit:11.3386;}
	.st2{enable-background:new    ;}
	.st3{fill:#FF0088;stroke:#000000;stroke-width:0.75;stroke-linecap:round;stroke-linejoin:round;stroke-miterlimit:11.3386;}
	.st4{stroke:#000000;stroke-width:0.4;stroke-miterlimit:10;}
	.st5{font-family:'Comfortaa-Regular';}
	.st6{font-size:14px;}
</style>
<sodipodi:namedview  bordercolor="#666666" borderopacity="1.0" id="base" inkscape:current-layer="layer1" inkscape:cx="168.95076" inkscape:cy="111.62851" inkscape:document-units="mm" inkscape:pageopacity="0.0" inkscape:pageshadow="2" inkscape:window-height="837" inkscape:window-maximized="1" inkscape:window-width="1600" inkscape:window-x="-8" inkscape:window-y="-8" inkscape:zoom="1.979899" pagecolor="#ffffff" showgrid="false" showguides="false" units="in">
	</sodipodi:namedview>
<g id="layer1" transform="translate(0,-246.19997)" inkscape:groupmode="layer" inkscape:label="Layer 1">
	<path id="path1378" inkscape:connector-curvature="0" class="st0" d="M77.6,295.8c6,0.8,6.4,4.6,6.4,7v12.8
		c-0.5,4.6-3.4,5.9-6.4,6.2H49.5c6.1-3.1,9.3-7.1,11.2-11.6h12.8c2.9-0.1,2.6-4.1,0-4.1H61.9c2.3-7.5-0.9-20.6-11.9-25.2h29.6
		c6.7,0.6,6,10.3,0,10.9H68.6c-1.9,0-2.6,3.7,0,4.1H77.6z"/>
	<path id="path1380" inkscape:connector-curvature="0" class="st1" d="M38.6,280.2c-11.6,0-21,9.4-21,21c0,11.6,9.4,21,21,21
		c0,0,0,0,0,0c11.6,0,21-9.4,21-21C59.6,289.6,50.2,280.2,38.6,280.2L38.6,280.2z M38.8,297.6c1.9,0,3.4,1.5,3.4,3.4
		c0,1.9-1.5,3.4-3.4,3.4c-1.9,0-3.4-1.5-3.4-3.4l0,0C35.4,299.1,36.9,297.6,38.8,297.6z"/>
	<g>
		<g class="st2">
			<path d="M19.2,375.5c0-3,1.7-4.8,4.1-4.8c1.1,0,2,0.5,2.5,1.1l-0.6,0.8c-0.5-0.5-1.1-0.9-1.9-0.9c-1.7,0-2.9,1.4-2.9,3.7
				c0,2.3,1.1,3.8,2.8,3.8c0.9,0,1.5-0.4,2.1-1l0.6,0.7c-0.7,0.8-1.6,1.3-2.8,1.3C20.9,380.2,19.2,378.5,19.2,375.5z"/>
			<path d="M27.2,378.3c0-1.5,1.3-2.2,4.2-2.5c0-0.9-0.3-1.7-1.4-1.7c-0.8,0-1.5,0.4-2,0.7l-0.5-0.8c0.6-0.4,1.6-0.9,2.7-0.9
				c1.7,0,2.4,1.1,2.4,2.8v4.2h-1l-0.1-0.8h0c-0.6,0.5-1.4,1-2.3,1C28,380.2,27.2,379.5,27.2,378.3z M31.4,378.4v-1.9
				c-2.3,0.3-3.1,0.8-3.1,1.7c0,0.8,0.5,1.1,1.2,1.1C30.2,379.3,30.7,379,31.4,378.4z"/>
			<path d="M34.7,378.7v-8.6h1.2v8.7c0,0.4,0.2,0.5,0.3,0.5c0.1,0,0.1,0,0.3,0l0.2,0.9c-0.2,0.1-0.4,0.1-0.7,0.1
				C35,380.2,34.7,379.7,34.7,378.7z"/>
			<path d="M38.2,378.7v-8.6h1.2v8.7c0,0.4,0.2,0.5,0.3,0.5c0.1,0,0.1,0,0.3,0l0.2,0.9c-0.2,0.1-0.4,0.1-0.7,0.1
				C38.6,380.2,38.2,379.7,38.2,378.7z"/>
			<path d="M44.5,370.1h0.8l-3.7,12.2h-0.8L44.5,370.1z"/>
			<path d="M48.7,371.9h-2.8v-1h6.7v1h-2.8v8.2h-1.2V371.9z"/>
			<path d="M53.7,376.7c0-2.2,1.5-3.6,3.1-3.6c1.7,0,2.7,1.2,2.7,3.2c0,0.2,0,0.5-0.1,0.7h-4.6c0.1,1.4,1,2.4,2.3,2.4
				c0.7,0,1.2-0.2,1.7-0.5l0.4,0.8c-0.6,0.4-1.3,0.7-2.2,0.7C55.2,380.2,53.7,378.9,53.7,376.7z M58.5,376.1c0-1.4-0.6-2.1-1.7-2.1
				c-1,0-1.8,0.8-2,2.1H58.5z"/>
			<path d="M62.4,376.5l-2.1-3.3h1.2l0.9,1.5c0.2,0.4,0.4,0.8,0.7,1.1h0.1c0.2-0.4,0.4-0.8,0.6-1.1l0.8-1.5h1.2l-2.1,3.4l2.2,3.4
				h-1.2l-1-1.6c-0.2-0.4-0.5-0.8-0.7-1.2H63c-0.2,0.4-0.5,0.8-0.7,1.2l-0.9,1.6h-1.2L62.4,376.5z"/>
			<path d="M67.6,378v-3.8h-1v-0.9l1.1-0.1l0.1-1.9h1v1.9h1.8v0.9h-1.8v3.8c0,0.8,0.3,1.3,1.1,1.3c0.2,0,0.6-0.1,0.8-0.2l0.2,0.9
				c-0.4,0.1-0.8,0.3-1.3,0.3C68.1,380.2,67.6,379.3,67.6,378z"/>
			<path d="M71.9,374.3c0-0.5,0.4-0.9,0.8-0.9c0.5,0,0.8,0.4,0.8,0.9c0,0.5-0.4,0.9-0.8,0.9C72.3,375.2,71.9,374.8,71.9,374.3z
				 M71.9,379.4c0-0.5,0.4-0.9,0.8-0.9c0.5,0,0.8,0.4,0.8,0.9c0,0.5-0.4,0.9-0.8,0.9C72.3,380.2,71.9,379.9,71.9,379.4z"/>
			<path d="M78.3,376.2c0-2.5,0.7-4.5,1.8-6.4l1.3,0.5c-1,1.8-1.5,3.9-1.5,5.9c0,2,0.4,4.1,1.5,5.9l-1.3,0.5
				C79,380.7,78.3,378.6,78.3,376.2z"/>
			<path d="M86.7,372.9h-4v-1.7h6.2v1.3c-2.1,2.5-2.3,4.2-2.5,7.6h-2.1C84.5,377.1,85,375.2,86.7,372.9z"/>
			<path d="M90,375.6c0-3,1.3-4.6,3.2-4.6s3.2,1.6,3.2,4.6c0,3-1.3,4.7-3.2,4.7S90,378.6,90,375.6z M94.4,375.6c0-2.4-0.5-3-1.2-3
				s-1.2,0.6-1.2,3s0.5,3.1,1.2,3.1S94.4,378,94.4,375.6z"/>
			<path d="M101.5,372.9h-4v-1.7h6.2v1.3c-2.1,2.5-2.3,4.2-2.5,7.6h-2.1C99.3,377.1,99.8,375.2,101.5,372.9z"/>
			<path d="M104.9,382c1-1.8,1.5-3.9,1.5-5.9c0-2-0.4-4.1-1.5-5.9l1.3-0.5c1.2,1.9,1.8,3.9,1.8,6.4c0,2.5-0.7,4.5-1.8,6.4L104.9,382
				z"/>
			<path d="M112.2,379l0.9-1.3c0.5,0.5,1.2,0.9,1.9,0.9c0.9,0,1.4-0.4,1.4-1.1c0-0.8-0.5-1.3-2.4-1.3v-1.5c1.6,0,2.1-0.5,2.1-1.2
				c0-0.6-0.4-1-1.1-1c-0.6,0-1.1,0.3-1.7,0.8l-1-1.3c0.8-0.7,1.7-1.1,2.8-1.1c1.8,0,3.1,0.9,3.1,2.4c0,0.9-0.5,1.6-1.5,2v0.1
				c1,0.3,1.8,1,1.8,2.2c0,1.7-1.5,2.6-3.3,2.6C113.8,380.2,112.8,379.7,112.2,379z"/>
			<path d="M123.4,374.9c0-0.6,0.1-1.4,0.1-2h-0.1c-0.2,0.5-0.5,1-0.7,1.5l-1.2,1.9h4.8v1.6h-6.8v-1.4l3.2-5.3h2.5v8.9h-1.9V374.9z"
				/>
			<path d="M127.2,378.9c2.3-2.1,3.9-3.7,3.9-4.9c0-0.9-0.5-1.3-1.3-1.3c-0.6,0-1.1,0.4-1.6,0.9l-1.1-1.1c0.9-0.9,1.7-1.4,3-1.4
				c1.8,0,3,1.1,3,2.8c0,1.5-1.4,3.1-2.9,4.6c0.5-0.1,1.1-0.1,1.5-0.1h1.8v1.7h-6.3V378.9z"/>
			<path d="M134.7,375.8h3.4v1.5h-3.4V375.8z"/>
			<path d="M139.3,377.8c0-1.1,0.7-1.7,1.5-2.2v-0.1c-0.7-0.5-1.2-1.2-1.2-2.1c0-1.5,1.2-2.5,2.8-2.5c1.6,0,2.7,1,2.7,2.4
				c0,0.8-0.6,1.5-1.2,1.9v0.1c0.8,0.5,1.5,1.1,1.5,2.3c0,1.4-1.3,2.5-3.1,2.5C140.6,380.2,139.3,379.2,139.3,377.8z M143.6,377.7
				c0-0.8-0.8-1.1-1.9-1.6c-0.4,0.4-0.7,0.9-0.7,1.4c0,0.8,0.6,1.2,1.4,1.2C143.1,378.8,143.6,378.5,143.6,377.7z M143.5,373.6
				c0-0.7-0.4-1.1-1.1-1.1c-0.5,0-1,0.3-1,1c0,0.7,0.6,1.1,1.5,1.4C143.3,374.5,143.5,374.1,143.5,373.6z"/>
			<path d="M146.7,375.8c0-3.3,1.7-4.8,3.6-4.8c1.2,0,2,0.5,2.6,1.1l-1.1,1.2c-0.3-0.3-0.9-0.6-1.4-0.6c-1,0-1.8,0.8-1.8,3.2
				c0,2.2,0.7,2.9,1.4,2.9c0.6,0,1.1-0.4,1.1-1.4c0-0.9-0.5-1.3-1.2-1.3c-0.5,0-1,0.3-1.4,1l-0.1-1.3c0.5-0.7,1.3-1.1,1.9-1.1
				c1.5,0,2.6,0.9,2.6,2.8c0,1.8-1.3,3-3,3C148.3,380.2,146.7,379,146.7,375.8z"/>
			<path d="M157.6,374.9c0-0.6,0.1-1.4,0.1-2h-0.1c-0.2,0.5-0.5,1-0.7,1.5l-1.2,1.9h4.8v1.6h-6.8v-1.4l3.2-5.3h2.5v8.9h-1.9V374.9z"
				/>
			<path d="M161.5,377.8c0-1.1,0.7-1.7,1.5-2.2v-0.1c-0.7-0.5-1.2-1.2-1.2-2.1c0-1.5,1.2-2.5,2.8-2.5c1.6,0,2.7,1,2.7,2.4
				c0,0.8-0.6,1.5-1.2,1.9v0.1c0.8,0.5,1.5,1.1,1.5,2.3c0,1.4-1.3,2.5-3.1,2.5C162.8,380.2,161.5,379.2,161.5,377.8z M165.8,377.7
				c0-0.8-0.8-1.1-1.9-1.6c-0.4,0.4-0.7,0.9-0.7,1.4c0,0.8,0.6,1.2,1.4,1.2C165.3,378.8,165.8,378.5,165.8,377.7z M165.7,373.6
				c0-0.7-0.4-1.1-1.1-1.1c-0.5,0-1,0.3-1,1c0,0.7,0.6,1.1,1.5,1.4C165.5,374.5,165.7,374.1,165.7,373.6z"/>
		</g>
	</g>
	<g>
		<g class="st2">
			<path d="M19.2,355.6c0-2.9,1.6-4.7,3.9-4.7s3.9,1.8,3.9,4.7c0,2.9-1.6,4.8-3.9,4.8S19.2,358.6,19.2,355.6z M25.8,355.6
				c0-2.3-1.1-3.7-2.7-3.7s-2.7,1.4-2.7,3.7s1.1,3.8,2.7,3.8S25.8,357.9,25.8,355.6z"/>
			<path d="M28.9,353.4h1l0.1,1h0c0.6-0.6,1.3-1.2,2.1-1.2c1,0,1.6,0.5,1.9,1.3c0.7-0.8,1.4-1.3,2.2-1.3c1.4,0,2.1,0.9,2.1,2.7v4.3
				h-1.2v-4.2c0-1.3-0.4-1.8-1.3-1.8c-0.5,0-1.1,0.3-1.7,1v4.9H33v-4.2c0-1.3-0.4-1.8-1.3-1.8c-0.5,0-1.1,0.3-1.7,1v4.9h-1.2V353.4z
				"/>
			<path d="M40.1,358.5c0-1.5,1.3-2.2,4.2-2.5c0-0.9-0.3-1.7-1.4-1.7c-0.8,0-1.5,0.4-2,0.7l-0.5-0.8c0.6-0.4,1.6-0.9,2.7-0.9
				c1.7,0,2.4,1.1,2.4,2.8v4.2h-1l-0.1-0.8h0c-0.6,0.5-1.4,1-2.3,1C41,360.4,40.1,359.7,40.1,358.5z M44.3,358.6v-1.9
				c-2.3,0.3-3.1,0.8-3.1,1.7c0,0.8,0.5,1.1,1.2,1.1C43.1,359.5,43.6,359.2,44.3,358.6z"/>
			<path d="M47.6,353.4h1l0.1,1.2h0c0.5-0.9,1.2-1.4,1.9-1.4c0.3,0,0.5,0,0.7,0.1l-0.2,1c-0.2-0.1-0.4-0.1-0.7-0.1
				c-0.6,0-1.3,0.4-1.7,1.6v4.4h-1.2V353.4z"/>
			<path d="M51.9,359.1l0.7-0.8c0.7,0.7,1.6,1.1,2.5,1.1c1.2,0,1.9-0.6,1.9-1.5c0-0.9-0.7-1.2-1.5-1.6l-1.3-0.6
				c-0.9-0.4-1.9-1-1.9-2.4c0-1.4,1.2-2.4,2.9-2.4c1.1,0,2.1,0.5,2.7,1.1l-0.6,0.8c-0.6-0.5-1.2-0.9-2.1-0.9c-1,0-1.7,0.5-1.7,1.3
				c0,0.9,0.8,1.2,1.5,1.5l1.3,0.6c1.1,0.5,1.9,1.1,1.9,2.5c0,1.5-1.2,2.6-3.1,2.6C53.8,360.4,52.7,359.9,51.9,359.1z"/>
			<path d="M59.9,350.3h1.2v2.7l0,1.4c0.6-0.6,1.3-1.1,2.3-1.1c1.4,0,2.1,0.9,2.1,2.7v4.3h-1.2v-4.2c0-1.3-0.4-1.8-1.3-1.8
				c-0.7,0-1.2,0.4-1.9,1v4.9h-1.2V350.3z"/>
			<path d="M67.3,351.3c0-0.5,0.3-0.7,0.8-0.7c0.4,0,0.8,0.3,0.8,0.7c0,0.4-0.3,0.7-0.8,0.7C67.7,352,67.3,351.7,67.3,351.3z
				 M67.5,353.4h1.2v6.8h-1.2V353.4z"/>
			<path d="M70.2,359.5l0.6-0.8c0.6,0.5,1.2,0.8,2,0.8c0.9,0,1.3-0.5,1.3-1.1c0-0.7-0.8-1-1.6-1.3c-1-0.3-2-0.8-2-2
				c0-1.1,0.9-1.9,2.3-1.9c0.8,0,1.6,0.3,2.1,0.8l-0.6,0.7c-0.5-0.3-1-0.6-1.6-0.6c-0.9,0-1.3,0.5-1.3,1c0,0.6,0.7,0.9,1.5,1.2
				c1,0.4,2.1,0.8,2.1,2.1c0,1.1-0.9,2-2.5,2C71.8,360.4,70.9,360,70.2,359.5z"/>
			<path d="M76.8,350.3H78v2.7l0,1.4c0.6-0.6,1.3-1.1,2.3-1.1c1.4,0,2.1,0.9,2.1,2.7v4.3h-1.2v-4.2c0-1.3-0.4-1.8-1.3-1.8
				c-0.7,0-1.2,0.4-1.9,1v4.9h-1.2V350.3z"/>
			<path d="M84,358.5c0-1.5,1.3-2.2,4.2-2.5c0-0.9-0.3-1.7-1.4-1.7c-0.8,0-1.5,0.4-2,0.7l-0.5-0.8c0.6-0.4,1.6-0.9,2.7-0.9
				c1.7,0,2.4,1.1,2.4,2.8v4.2h-1l-0.1-0.8h0c-0.6,0.5-1.4,1-2.3,1C84.9,360.4,84,359.7,84,358.5z M88.2,358.6v-1.9
				c-2.3,0.3-3.1,0.8-3.1,1.7c0,0.8,0.5,1.1,1.2,1.1C87,359.5,87.6,359.2,88.2,358.6z"/>
			<path d="M91.5,353.4h1l0.1,1h0c0.6-0.6,1.3-1.1,2.3-1.1c1.4,0,2.1,0.9,2.1,2.7v4.3h-1.2v-4.2c0-1.3-0.4-1.8-1.3-1.8
				c-0.7,0-1.2,0.4-1.9,1v4.9h-1.2V353.4z"/>
			<path d="M99,351.3c0-0.5,0.3-0.7,0.8-0.7c0.4,0,0.8,0.3,0.8,0.7c0,0.4-0.3,0.7-0.8,0.7C99.3,352,99,351.7,99,351.3z M99.2,353.4
				h1.2v6.8h-1.2V353.4z"/>
			<path d="M102.1,359.1l0.7-0.8c0.7,0.7,1.6,1.1,2.5,1.1c1.2,0,1.9-0.6,1.9-1.5c0-0.9-0.7-1.2-1.5-1.6l-1.3-0.6
				c-0.9-0.4-1.9-1-1.9-2.4c0-1.4,1.2-2.4,2.9-2.4c1.1,0,2.1,0.5,2.7,1.1l-0.6,0.8c-0.6-0.5-1.2-0.9-2.1-0.9c-1,0-1.7,0.5-1.7,1.3
				c0,0.9,0.8,1.2,1.5,1.5l1.3,0.6c1.1,0.5,1.9,1.1,1.9,2.5c0,1.5-1.2,2.6-3.1,2.6C104,360.4,102.9,359.9,102.1,359.1z"/>
			<path d="M109.6,356.9c0-2.3,1.5-3.6,3.3-3.6c0.9,0,1.5,0.4,2,0.8l-0.6,0.8c-0.4-0.4-0.8-0.6-1.4-0.6c-1.2,0-2.1,1.1-2.1,2.6
				c0,1.6,0.9,2.6,2.1,2.6c0.6,0,1.2-0.3,1.6-0.7l0.5,0.8c-0.6,0.5-1.4,0.9-2.2,0.9C111,360.4,109.6,359.1,109.6,356.9z"/>
			<path d="M116.5,350.3h1.2v2.7l0,1.4c0.6-0.6,1.3-1.1,2.3-1.1c1.4,0,2.1,0.9,2.1,2.7v4.3h-1.2v-4.2c0-1.3-0.4-1.8-1.3-1.8
				c-0.7,0-1.2,0.4-1.9,1v4.9h-1.2V350.3z"/>
			<path d="M123.6,356.9c0-2.3,1.5-3.6,3.2-3.6s3.2,1.3,3.2,3.6c0,2.3-1.5,3.6-3.2,3.6S123.6,359.1,123.6,356.9z M128.7,356.9
				c0-1.6-0.8-2.6-2-2.6c-1.2,0-2,1.1-2,2.6c0,1.6,0.8,2.6,2,2.6C127.9,359.5,128.7,358.4,128.7,356.9z"/>
			<path d="M131.2,356.9c0-2.3,1.5-3.6,3.2-3.6s3.2,1.3,3.2,3.6c0,2.3-1.5,3.6-3.2,3.6S131.2,359.1,131.2,356.9z M136.3,356.9
				c0-1.6-0.8-2.6-2-2.6s-2,1.1-2,2.6c0,1.6,0.8,2.6,2,2.6S136.3,358.4,136.3,356.9z"/>
			<path d="M139.3,358.9v-8.6h1.2v8.7c0,0.4,0.2,0.5,0.3,0.5c0.1,0,0.1,0,0.3,0l0.2,0.9c-0.2,0.1-0.4,0.1-0.7,0.1
				C139.6,360.4,139.3,359.9,139.3,358.9z"/>
			<path d="M142.4,357.4c0-3.7,2.7-6.2,5.8-6.2c2.8,0,4.6,1.9,4.6,4.6c0,2.4-1.5,3.7-2.8,3.7c-0.8,0-1.4-0.4-1.5-1.1h0
				c-0.5,0.5-1.1,1-1.7,1c-1,0-1.7-0.7-1.7-2c0-1.5,1.1-3.3,2.7-3.3c0.5,0,0.9,0.2,1.1,0.7h0l0.2-0.6h0.8l-0.5,2.8
				c-0.3,1.1,0,1.6,0.8,1.6c0.9,0,1.9-1.1,1.9-2.9c0-2.3-1.3-3.9-3.9-3.9c-2.5,0-4.9,2.1-4.9,5.4c0,2.7,1.8,4.3,4.2,4.3
				c0.8,0,1.6-0.3,2.3-0.6l0.3,0.7c-0.8,0.5-1.7,0.7-2.7,0.7C144.6,362.4,142.4,360.7,142.4,357.4z M148.4,357.8l0.4-2.2
				c-0.3-0.4-0.5-0.6-0.9-0.6c-1.1,0-1.8,1.3-1.8,2.4c0,0.9,0.4,1.3,1,1.3C147.5,358.7,147.9,358.4,148.4,357.8z"/>
			<path d="M154.2,361.6c0-0.6,0.4-1.1,1-1.5V360c-0.3-0.2-0.6-0.6-0.6-1.1c0-0.6,0.4-1,0.7-1.3v-0.1c-0.5-0.4-0.9-1-0.9-1.8
				c0-1.5,1.2-2.4,2.6-2.4c0.4,0,0.7,0.1,1,0.2h2.4v0.9h-1.4c0.3,0.3,0.6,0.8,0.6,1.4c0,1.5-1.1,2.4-2.5,2.4c-0.3,0-0.7-0.1-1-0.2
				c-0.2,0.2-0.4,0.4-0.4,0.8c0,0.4,0.3,0.7,1.2,0.7h1.3c1.6,0,2.4,0.5,2.4,1.6c0,1.3-1.3,2.4-3.4,2.4
				C155.3,363.4,154.2,362.7,154.2,361.6z M159.3,361.2c0-0.6-0.5-0.8-1.4-0.8h-1.2c-0.3,0-0.6,0-0.9-0.1c-0.5,0.3-0.7,0.8-0.7,1.1
				c0,0.7,0.7,1.2,2,1.2C158.5,362.6,159.3,361.9,159.3,361.2z M158.4,355.7c0-1-0.6-1.6-1.4-1.6c-0.8,0-1.4,0.6-1.4,1.6
				c0,1,0.7,1.6,1.4,1.6C157.8,357.3,158.4,356.7,158.4,355.7z"/>
			<path d="M161.7,353.4h1l0.1,1h0c0.6-0.6,1.3-1.2,2.1-1.2c1,0,1.6,0.5,1.9,1.3c0.7-0.8,1.4-1.3,2.2-1.3c1.4,0,2.1,0.9,2.1,2.7v4.3
				H170v-4.2c0-1.3-0.4-1.8-1.3-1.8c-0.5,0-1.1,0.3-1.7,1v4.9h-1.2v-4.2c0-1.3-0.4-1.8-1.3-1.8c-0.5,0-1.1,0.3-1.7,1v4.9h-1.2V353.4
				z"/>
			<path d="M172.9,358.5c0-1.5,1.3-2.2,4.2-2.5c0-0.9-0.3-1.7-1.4-1.7c-0.8,0-1.5,0.4-2,0.7l-0.5-0.8c0.6-0.4,1.6-0.9,2.7-0.9
				c1.7,0,2.4,1.1,2.4,2.8v4.2h-1l-0.1-0.8h0c-0.6,0.5-1.4,1-2.3,1C173.8,360.4,172.9,359.7,172.9,358.5z M177.1,358.6v-1.9
				c-2.3,0.3-3.1,0.8-3.1,1.7c0,0.8,0.5,1.1,1.2,1.1C175.9,359.5,176.5,359.2,177.1,358.6z"/>
			<path d="M180.2,351.3c0-0.5,0.3-0.7,0.8-0.7c0.4,0,0.8,0.3,0.8,0.7c0,0.4-0.3,0.7-0.8,0.7C180.5,352,180.2,351.7,180.2,351.3z
				 M180.4,353.4h1.2v6.8h-1.2V353.4z"/>
			<path d="M183.9,358.9v-8.6h1.2v8.7c0,0.4,0.2,0.5,0.3,0.5c0.1,0,0.1,0,0.3,0l0.2,0.9c-0.2,0.1-0.4,0.1-0.7,0.1
				C184.2,360.4,183.9,359.9,183.9,358.9z"/>
			<path d="M187.2,359.6c0-0.5,0.4-0.9,0.8-0.9c0.5,0,0.8,0.4,0.8,0.9c0,0.5-0.4,0.9-0.8,0.9C187.6,360.4,187.2,360.1,187.2,359.6z"
				/>
			<path d="M190.4,356.9c0-2.3,1.5-3.6,3.3-3.6c0.9,0,1.5,0.4,2,0.8l-0.6,0.8c-0.4-0.4-0.8-0.6-1.4-0.6c-1.2,0-2.1,1.1-2.1,2.6
				c0,1.6,0.9,2.6,2.1,2.6c0.6,0,1.2-0.3,1.6-0.7l0.5,0.8c-0.6,0.5-1.4,0.9-2.2,0.9C191.8,360.4,190.4,359.1,190.4,356.9z"/>
			<path d="M196.8,356.9c0-2.3,1.5-3.6,3.2-3.6c1.7,0,3.2,1.3,3.2,3.6c0,2.3-1.5,3.6-3.2,3.6C198.3,360.4,196.8,359.1,196.8,356.9z
				 M201.9,356.9c0-1.6-0.8-2.6-2-2.6c-1.2,0-2,1.1-2,2.6c0,1.6,0.8,2.6,2,2.6C201.1,359.5,201.9,358.4,201.9,356.9z"/>
			<path d="M204.9,353.4h1l0.1,1h0c0.6-0.6,1.3-1.2,2.1-1.2c1,0,1.6,0.5,1.9,1.3c0.7-0.8,1.4-1.3,2.2-1.3c1.4,0,2.1,0.9,2.1,2.7v4.3
				h-1.2v-4.2c0-1.3-0.4-1.8-1.3-1.8c-0.5,0-1.1,0.3-1.7,1v4.9H209v-4.2c0-1.3-0.4-1.8-1.3-1.8c-0.5,0-1.1,0.3-1.7,1v4.9h-1.2V353.4
				z"/>
		</g>
	</g>
	<g>
		<g class="st2">
			<path d="M117.7,309.1c0-3,1.7-4.8,4.1-4.8c1.1,0,2,0.5,2.5,1.1l-0.6,0.8c-0.5-0.5-1.1-0.9-1.9-0.9c-1.7,0-2.9,1.4-2.9,3.7
				c0,2.3,1.1,3.8,2.8,3.8c0.9,0,1.5-0.4,2.1-1l0.6,0.7c-0.7,0.8-1.6,1.3-2.8,1.3C119.4,313.8,117.7,312,117.7,309.1z"/>
			<path d="M125.6,310.2c0-2.3,1.5-3.6,3.2-3.6c1.7,0,3.2,1.3,3.2,3.6c0,2.3-1.5,3.6-3.2,3.6C127.1,313.8,125.6,312.5,125.6,310.2z
				 M130.7,310.2c0-1.6-0.8-2.6-2-2.6c-1.2,0-2,1.1-2,2.6c0,1.6,0.8,2.6,2,2.6C129.9,312.8,130.7,311.8,130.7,310.2z"/>
			<path d="M133.7,306.8h1l0.1,1h0c0.6-0.6,1.3-1.1,2.3-1.1c1.4,0,2.1,0.9,2.1,2.7v4.3H138v-4.2c0-1.3-0.4-1.8-1.3-1.8
				c-0.7,0-1.2,0.4-1.9,1v4.9h-1.2V306.8z"/>
			<path d="M140.6,312.9l0.6-0.8c0.6,0.5,1.2,0.8,2,0.8c0.9,0,1.3-0.5,1.3-1.1c0-0.7-0.8-1-1.6-1.3c-1-0.3-2-0.8-2-2
				c0-1.1,0.9-1.9,2.3-1.9c0.8,0,1.6,0.3,2.1,0.8l-0.6,0.7c-0.5-0.3-1-0.6-1.6-0.6c-0.9,0-1.3,0.5-1.3,1c0,0.6,0.7,0.9,1.5,1.2
				c1,0.4,2.1,0.8,2.1,2.1c0,1.1-0.9,2-2.5,2C142.2,313.8,141.2,313.4,140.6,312.9z"/>
			<path d="M147.4,311.5v-3.8h-1v-0.9l1.1-0.1l0.1-1.9h1v1.9h1.8v0.9h-1.8v3.8c0,0.8,0.3,1.3,1.1,1.3c0.2,0,0.6-0.1,0.8-0.2l0.2,0.9
				c-0.4,0.1-0.8,0.3-1.3,0.3C147.9,313.8,147.4,312.9,147.4,311.5z"/>
			<path d="M151.9,306.8h1l0.1,1.2h0c0.5-0.9,1.2-1.4,1.9-1.4c0.3,0,0.5,0,0.7,0.1l-0.2,1c-0.2-0.1-0.4-0.1-0.7-0.1
				c-0.6,0-1.3,0.4-1.7,1.6v4.4h-1.2V306.8z"/>
			<path d="M156.7,311.1v-4.3h1.2v4.2c0,1.3,0.4,1.8,1.3,1.8c0.7,0,1.2-0.3,1.8-1.1v-4.8h1.2v6.8h-1l-0.1-1.1h0
				c-0.6,0.7-1.3,1.2-2.2,1.2C157.4,313.8,156.7,312.9,156.7,311.1z"/>
			<path d="M163.9,310.2c0-2.3,1.5-3.6,3.3-3.6c0.9,0,1.5,0.4,2,0.8l-0.6,0.8c-0.4-0.4-0.8-0.6-1.4-0.6c-1.2,0-2.1,1.1-2.1,2.6
				c0,1.6,0.9,2.6,2.1,2.6c0.6,0,1.2-0.3,1.6-0.7l0.5,0.8c-0.6,0.5-1.4,0.9-2.2,0.9C165.3,313.8,163.9,312.5,163.9,310.2z"/>
			<path d="M171,311.5v-3.8h-1v-0.9l1.1-0.1l0.1-1.9h1v1.9h1.8v0.9h-1.8v3.8c0,0.8,0.3,1.3,1.1,1.3c0.2,0,0.6-0.1,0.8-0.2l0.2,0.9
				c-0.4,0.1-0.8,0.3-1.3,0.3C171.5,313.8,171,312.9,171,311.5z"/>
			<path d="M175.3,304.7c0-0.5,0.3-0.7,0.8-0.7s0.8,0.3,0.8,0.7c0,0.4-0.3,0.7-0.8,0.7S175.3,305.1,175.3,304.7z M175.5,306.8h1.2
				v6.8h-1.2V306.8z"/>
			<path d="M178.5,310.2c0-2.3,1.5-3.6,3.2-3.6c1.7,0,3.2,1.3,3.2,3.6c0,2.3-1.5,3.6-3.2,3.6C180,313.8,178.5,312.5,178.5,310.2z
				 M183.6,310.2c0-1.6-0.8-2.6-2-2.6c-1.2,0-2,1.1-2,2.6c0,1.6,0.8,2.6,2,2.6C182.8,312.8,183.6,311.8,183.6,310.2z"/>
			<path d="M186.6,306.8h1l0.1,1h0c0.6-0.6,1.3-1.1,2.3-1.1c1.4,0,2.1,0.9,2.1,2.7v4.3h-1.2v-4.2c0-1.3-0.4-1.8-1.3-1.8
				c-0.7,0-1.2,0.4-1.9,1v4.9h-1.2V306.8z"/>
		</g>
	</g>
	<g>
		<g class="st2">
			<path d="M117.3,285.4h1.2l1,5c0.2,1,0.4,2,0.5,3h0.1c0.2-1,0.4-2,0.6-3l1.3-5h1.1l1.3,5c0.2,1,0.4,2,0.7,3h0.1c0.2-1,0.3-2,0.5-3
				l1-5h1.1l-1.9,9.2h-1.4l-1.4-5.5c-0.2-0.7-0.3-1.4-0.4-2.1h-0.1c-0.1,0.7-0.3,1.4-0.5,2.1l-1.4,5.5h-1.4L117.3,285.4z"/>
			<path d="M128.6,291.2c0-2.2,1.5-3.6,3.1-3.6c1.7,0,2.7,1.2,2.7,3.2c0,0.2,0,0.5-0.1,0.7h-4.6c0.1,1.4,1,2.4,2.3,2.4
				c0.7,0,1.2-0.2,1.7-0.5l0.4,0.8c-0.6,0.4-1.3,0.7-2.2,0.7C130,294.8,128.6,293.5,128.6,291.2z M133.4,290.7
				c0-1.4-0.6-2.1-1.7-2.1c-1,0-1.8,0.8-2,2.1H133.4z"/>
			<path d="M137.1,293.9L137.1,293.9l-0.1,0.7h-0.9v-10h1.2v2.7l0,1.2c0.6-0.5,1.4-0.9,2.1-0.9c1.8,0,2.7,1.4,2.7,3.5
				c0,2.3-1.4,3.7-2.9,3.7C138.4,294.8,137.7,294.5,137.1,293.9z M140.8,291.1c0-1.5-0.5-2.5-1.8-2.5c-0.6,0-1.2,0.3-1.8,0.9v3.6
				c0.6,0.5,1.2,0.7,1.7,0.7C140,293.8,140.8,292.8,140.8,291.1z"/>
			<path d="M146.7,285.4h2.3c2.8,0,4.3,1.6,4.3,4.6s-1.5,4.6-4.3,4.6h-2.4V285.4z M148.9,293.7c2.1,0,3.2-1.3,3.2-3.7
				s-1.1-3.6-3.2-3.6h-1v7.3H148.9z"/>
			<path d="M154.7,291.2c0-2.2,1.5-3.6,3.1-3.6c1.7,0,2.7,1.2,2.7,3.2c0,0.2,0,0.5-0.1,0.7h-4.6c0.1,1.4,1,2.4,2.3,2.4
				c0.7,0,1.2-0.2,1.7-0.5l0.4,0.8c-0.6,0.4-1.3,0.7-2.2,0.7C156.1,294.8,154.7,293.5,154.7,291.2z M159.5,290.7
				c0-1.4-0.6-2.1-1.7-2.1c-1,0-1.8,0.8-2,2.1H159.5z"/>
			<path d="M161.2,287.8h1.2l1.3,3.9c0.2,0.7,0.4,1.4,0.6,2h0.1c0.2-0.7,0.4-1.3,0.6-2l1.3-3.9h1.1l-2.4,6.8h-1.3L161.2,287.8z"/>
			<path d="M168.2,291.2c0-2.2,1.5-3.6,3.1-3.6c1.7,0,2.7,1.2,2.7,3.2c0,0.2,0,0.5-0.1,0.7h-4.6c0.1,1.4,1,2.4,2.3,2.4
				c0.7,0,1.2-0.2,1.7-0.5l0.4,0.8c-0.6,0.4-1.3,0.7-2.2,0.7C169.6,294.8,168.2,293.5,168.2,291.2z M172.9,290.7
				c0-1.4-0.6-2.1-1.7-2.1c-1,0-1.8,0.8-2,2.1H172.9z"/>
			<path d="M175.6,293.3v-8.6h1.2v8.7c0,0.4,0.2,0.5,0.3,0.5c0.1,0,0.1,0,0.3,0l0.2,0.9c-0.2,0.1-0.4,0.1-0.7,0.1
				C176,294.8,175.6,294.3,175.6,293.3z"/>
			<path d="M178.7,291.2c0-2.3,1.5-3.6,3.2-3.6c1.7,0,3.2,1.3,3.2,3.6c0,2.3-1.5,3.6-3.2,3.6C180.2,294.8,178.7,293.5,178.7,291.2z
				 M183.8,291.2c0-1.6-0.8-2.6-2-2.6c-1.2,0-2,1.1-2,2.6c0,1.6,0.8,2.6,2,2.6C183,293.8,183.8,292.8,183.8,291.2z"/>
			<path d="M186.8,287.8h1l0.1,0.8h0c0.6-0.5,1.4-1,2.2-1c1.8,0,2.7,1.4,2.7,3.5c0,2.3-1.4,3.7-2.9,3.7c-0.6,0-1.3-0.3-1.9-0.8
				l0,1.2v2.3h-1.2V287.8z M191.6,291.1c0-1.5-0.5-2.5-1.8-2.5c-0.6,0-1.2,0.3-1.8,0.9v3.6c0.6,0.5,1.2,0.7,1.7,0.7
				C190.7,293.8,191.6,292.8,191.6,291.1z"/>
			<path d="M194.6,287.8h1l0.1,1h0c0.6-0.6,1.3-1.2,2.1-1.2c1,0,1.6,0.5,1.9,1.3c0.7-0.8,1.4-1.3,2.2-1.3c1.4,0,2.1,0.9,2.1,2.7v4.3
				h-1.2v-4.2c0-1.3-0.4-1.8-1.3-1.8c-0.5,0-1.1,0.3-1.7,1v4.9h-1.2v-4.2c0-1.3-0.4-1.8-1.3-1.8c-0.5,0-1.1,0.3-1.7,1v4.9h-1.2
				V287.8z"/>
			<path d="M205.7,291.2c0-2.2,1.5-3.6,3.1-3.6c1.7,0,2.7,1.2,2.7,3.2c0,0.2,0,0.5-0.1,0.7h-4.6c0.1,1.4,1,2.4,2.3,2.4
				c0.7,0,1.2-0.2,1.7-0.5l0.4,0.8c-0.6,0.4-1.3,0.7-2.2,0.7C207.1,294.8,205.7,293.5,205.7,291.2z M210.4,290.7
				c0-1.4-0.6-2.1-1.7-2.1c-1,0-1.8,0.8-2,2.1H210.4z"/>
			<path d="M213.1,287.8h1l0.1,1h0c0.6-0.6,1.3-1.1,2.3-1.1c1.4,0,2.1,0.9,2.1,2.7v4.3h-1.2v-4.2c0-1.3-0.4-1.8-1.3-1.8
				c-0.7,0-1.2,0.4-1.9,1v4.9h-1.2V287.8z"/>
			<path d="M221,292.5v-3.8h-1v-0.9l1.1-0.1l0.1-1.9h1v1.9h1.8v0.9h-1.8v3.8c0,0.8,0.3,1.3,1.1,1.3c0.2,0,0.6-0.1,0.8-0.2l0.2,0.9
				c-0.4,0.1-0.8,0.3-1.3,0.3C221.5,294.8,221,293.9,221,292.5z"/>
		</g>
	</g>
	<circle id="path5728" class="st3" cx="109.5" cy="309.8" r="3.6"/>
	<circle id="path5728-6" class="st3" cx="109.5" cy="290.8" r="3.6"/>
	<g>
		<g class="st2">
			<path d="M18.8,333.4H20l1,3.9c0.1,0.6,0.3,1.3,0.4,1.9h0.1c0.1-0.6,0.3-1.3,0.5-1.9l1.1-3.9h1.1l1.1,3.9c0.2,0.6,0.3,1.3,0.5,1.9
				h0.1c0.1-0.6,0.3-1.3,0.4-1.9l1-3.9h1.1l-1.8,6.8H25l-1-3.7c-0.2-0.6-0.3-1.3-0.5-2h-0.1c-0.1,0.7-0.3,1.3-0.5,2l-1,3.6h-1.3
				L18.8,333.4z"/>
			<path d="M28.9,333.4H30l1,3.9c0.1,0.6,0.3,1.3,0.4,1.9h0.1c0.1-0.6,0.3-1.3,0.5-1.9l1.1-3.9h1.1l1.1,3.9c0.2,0.6,0.3,1.3,0.5,1.9
				h0.1c0.1-0.6,0.3-1.3,0.4-1.9l1-3.9h1.1l-1.8,6.8H35l-1-3.7c-0.2-0.6-0.3-1.3-0.5-2h-0.1c-0.1,0.7-0.3,1.3-0.5,2l-1,3.6h-1.3
				L28.9,333.4z"/>
			<path d="M38.9,333.4h1.2l1,3.9c0.1,0.6,0.3,1.3,0.4,1.9h0.1c0.1-0.6,0.3-1.3,0.5-1.9l1.1-3.9h1.1l1.1,3.9
				c0.2,0.6,0.3,1.3,0.5,1.9h0.1c0.1-0.6,0.3-1.3,0.4-1.9l1-3.9h1.1l-1.8,6.8h-1.4l-1-3.7c-0.2-0.6-0.3-1.3-0.5-2h-0.1
				c-0.1,0.7-0.3,1.3-0.5,2l-1,3.6h-1.3L38.9,333.4z"/>
			<path d="M49.5,339.5c0-0.5,0.4-0.9,0.8-0.9c0.5,0,0.8,0.4,0.8,0.9c0,0.5-0.4,0.9-0.8,0.9C49.9,340.3,49.5,340,49.5,339.5z"/>
			<path d="M52.8,335.5c0-2.9,1.6-4.7,3.9-4.7s3.9,1.8,3.9,4.7c0,2.9-1.6,4.8-3.9,4.8S52.8,338.5,52.8,335.5z M59.5,335.5
				c0-2.3-1.1-3.7-2.7-3.7s-2.7,1.4-2.7,3.7s1.1,3.8,2.7,3.8S59.5,337.8,59.5,335.5z"/>
			<path d="M62.6,333.4h1l0.1,1h0c0.6-0.6,1.3-1.2,2.1-1.2c1,0,1.6,0.5,1.9,1.3c0.7-0.8,1.4-1.3,2.2-1.3c1.4,0,2.1,0.9,2.1,2.7v4.3
				h-1.2V336c0-1.3-0.4-1.8-1.3-1.8c-0.5,0-1.1,0.3-1.7,1v4.9h-1.2V336c0-1.3-0.4-1.8-1.3-1.8c-0.5,0-1.1,0.3-1.7,1v4.9h-1.2V333.4z
				"/>
			<path d="M73.7,338.4c0-1.5,1.3-2.2,4.2-2.5c0-0.9-0.3-1.7-1.4-1.7c-0.8,0-1.5,0.4-2,0.7l-0.5-0.8c0.6-0.4,1.6-0.9,2.7-0.9
				c1.7,0,2.4,1.1,2.4,2.8v4.2h-1l-0.1-0.8h0c-0.6,0.5-1.4,1-2.3,1C74.6,340.3,73.7,339.6,73.7,338.4z M77.9,338.5v-1.9
				c-2.3,0.3-3.1,0.8-3.1,1.7c0,0.8,0.5,1.1,1.2,1.1C76.7,339.4,77.3,339.1,77.9,338.5z"/>
			<path d="M81.2,333.4h1l0.1,1.2h0c0.5-0.9,1.2-1.4,1.9-1.4c0.3,0,0.5,0,0.7,0.1l-0.2,1c-0.2-0.1-0.4-0.1-0.7-0.1
				c-0.6,0-1.3,0.4-1.7,1.6v4.4h-1.2V333.4z"/>
			<path d="M85.5,339l0.7-0.8c0.7,0.7,1.6,1.1,2.5,1.1c1.2,0,1.9-0.6,1.9-1.5c0-0.9-0.7-1.2-1.5-1.6l-1.3-0.6
				c-0.9-0.4-1.9-1-1.9-2.4c0-1.4,1.2-2.4,2.9-2.4c1.1,0,2.1,0.5,2.7,1.1l-0.6,0.8c-0.6-0.5-1.2-0.9-2.1-0.9c-1,0-1.7,0.5-1.7,1.3
				c0,0.9,0.8,1.2,1.5,1.5l1.3,0.6c1.1,0.5,1.9,1.1,1.9,2.5c0,1.5-1.2,2.6-3.1,2.6C87.4,340.3,86.3,339.8,85.5,339z"/>
			<path d="M93.6,330.2h1.2v2.7l0,1.4c0.6-0.6,1.3-1.1,2.3-1.1c1.4,0,2.1,0.9,2.1,2.7v4.3h-1.2V336c0-1.3-0.4-1.8-1.3-1.8
				c-0.7,0-1.2,0.4-1.9,1v4.9h-1.2V330.2z"/>
			<path d="M101,331.2c0-0.5,0.3-0.7,0.8-0.7c0.4,0,0.8,0.3,0.8,0.7c0,0.4-0.3,0.7-0.8,0.7C101.3,332,101,331.6,101,331.2z
				 M101.2,333.4h1.2v6.8h-1.2V333.4z"/>
			<path d="M103.9,339.4l0.6-0.8c0.6,0.5,1.2,0.8,2,0.8c0.9,0,1.3-0.5,1.3-1.1c0-0.7-0.8-1-1.6-1.3c-1-0.3-2-0.8-2-2
				c0-1.1,0.9-1.9,2.3-1.9c0.8,0,1.6,0.3,2.1,0.8l-0.6,0.7c-0.5-0.3-1-0.6-1.6-0.6c-0.9,0-1.3,0.5-1.3,1c0,0.6,0.7,0.9,1.5,1.2
				c1,0.4,2.1,0.8,2.1,2.1c0,1.1-0.9,2-2.5,2C105.4,340.3,104.5,339.9,103.9,339.4z"/>
			<path d="M110.5,330.2h1.2v2.7l0,1.4c0.6-0.6,1.3-1.1,2.3-1.1c1.4,0,2.1,0.9,2.1,2.7v4.3h-1.2V336c0-1.3-0.4-1.8-1.3-1.8
				c-0.7,0-1.2,0.4-1.9,1v4.9h-1.2V330.2z"/>
			<path d="M117.7,338.4c0-1.5,1.3-2.2,4.2-2.5c0-0.9-0.3-1.7-1.4-1.7c-0.8,0-1.5,0.4-2,0.7l-0.5-0.8c0.6-0.4,1.6-0.9,2.7-0.9
				c1.7,0,2.4,1.1,2.4,2.8v4.2h-1l-0.1-0.8h0c-0.6,0.5-1.4,1-2.3,1C118.5,340.3,117.7,339.6,117.7,338.4z M121.9,338.5v-1.9
				c-2.3,0.3-3.1,0.8-3.1,1.7c0,0.8,0.5,1.1,1.2,1.1C120.7,339.4,121.2,339.1,121.9,338.5z"/>
			<path d="M125.1,333.4h1l0.1,1h0c0.6-0.6,1.3-1.1,2.3-1.1c1.4,0,2.1,0.9,2.1,2.7v4.3h-1.2V336c0-1.3-0.4-1.8-1.3-1.8
				c-0.7,0-1.2,0.4-1.9,1v4.9h-1.2V333.4z"/>
			<path d="M132.6,331.2c0-0.5,0.3-0.7,0.8-0.7c0.4,0,0.8,0.3,0.8,0.7c0,0.4-0.3,0.7-0.8,0.7C132.9,332,132.6,331.6,132.6,331.2z
				 M132.8,333.4h1.2v6.8h-1.2V333.4z"/>
			<path d="M136,339.5c0-0.5,0.4-0.9,0.8-0.9c0.5,0,0.8,0.4,0.8,0.9c0,0.5-0.4,0.9-0.8,0.9C136.4,340.3,136,340,136,339.5z"/>
			<path d="M139.2,336.8c0-2.3,1.5-3.6,3.3-3.6c0.9,0,1.5,0.4,2,0.8l-0.6,0.8c-0.4-0.4-0.8-0.6-1.4-0.6c-1.2,0-2.1,1.1-2.1,2.6
				c0,1.6,0.9,2.6,2.1,2.6c0.6,0,1.2-0.3,1.6-0.7l0.5,0.8c-0.6,0.5-1.4,0.9-2.2,0.9C140.6,340.3,139.2,339,139.2,336.8z"/>
			<path d="M145.6,336.8c0-2.3,1.5-3.6,3.2-3.6c1.7,0,3.2,1.3,3.2,3.6c0,2.3-1.5,3.6-3.2,3.6C147.1,340.3,145.6,339,145.6,336.8z
				 M150.7,336.8c0-1.6-0.8-2.6-2-2.6c-1.2,0-2,1.1-2,2.6c0,1.6,0.8,2.6,2,2.6C149.9,339.4,150.7,338.3,150.7,336.8z"/>
			<path d="M153.7,333.4h1l0.1,1h0c0.6-0.6,1.3-1.2,2.1-1.2c1,0,1.6,0.5,1.9,1.3c0.7-0.8,1.4-1.3,2.2-1.3c1.4,0,2.1,0.9,2.1,2.7v4.3
				H162V336c0-1.3-0.4-1.8-1.3-1.8c-0.5,0-1.1,0.3-1.7,1v4.9h-1.2V336c0-1.3-0.4-1.8-1.3-1.8c-0.5,0-1.1,0.3-1.7,1v4.9h-1.2V333.4z"
				/>
		</g>
	</g>
	<text transform="matrix(1 0 0 1 19.6885 268.5203)" class="st4 st5 st6">Omar Contracting</text>
	<rect x="-40.3" y="213" style="fill:none;" width="5.9" height="1.8"/>
</g>
</svg>
