<?xml version="1.0" encoding="UTF-8" standalone="no"?>
<!-- Created with Inkscape (http://www.inkscape.org/) -->

<svg
   xmlns:dc="http://purl.org/dc/elements/1.1/"
   xmlns:cc="http://creativecommons.org/ns#"
   xmlns:rdf="http://www.w3.org/1999/02/22-rdf-syntax-ns#"
   xmlns:svg="http://www.w3.org/2000/svg"
   xmlns="http://www.w3.org/2000/svg"
   xmlns:sodipodi="http://sodipodi.sourceforge.net/DTD/sodipodi-0.dtd"
   xmlns:inkscape="http://www.inkscape.org/namespaces/inkscape"
   width="100"
   height="100"
   viewBox="0 0 26.458333 26.458334"
   version="1.1"
   id="svg8"
   inkscape:version="0.92.4 (5da689c313, 2019-01-14)"
   sodipodi:docname="drawing.svg">
  <defs
     id="defs2" />
  <sodipodi:namedview
     id="base"
     pagecolor="#ffffff"
     bordercolor="#666666"
     borderopacity="1.0"
     inkscape:pageopacity="0.0"
     inkscape:pageshadow="2"
     inkscape:zoom="5.6"
     inkscape:cx="57.675576"
     inkscape:cy="45.114504"
     inkscape:document-units="mm"
     inkscape:current-layer="layer1"
     showgrid="false"
     units="px"
     inkscape:window-width="1600"
     inkscape:window-height="837"
     inkscape:window-x="-8"
     inkscape:window-y="-8"
     inkscape:window-maximized="1" />
  <metadata
     id="metadata5">
    <rdf:RDF>
      <cc:Work
         rdf:about="">
        <dc:format>image/svg+xml</dc:format>
        <dc:type
           rdf:resource="http://purl.org/dc/dcmitype/StillImage" />
        <dc:title></dc:title>
      </cc:Work>
    </rdf:RDF>
  </metadata>
  <g
     inkscape:label="Layer 1"
     inkscape:groupmode="layer"
     id="layer1"
     transform="translate(0,-270.54165)">
    <circle
       style="opacity:1;vector-effect:none;fill:#000000;fill-opacity:0;stroke:#000000;stroke-width:0.86371595;stroke-linecap:round;stroke-linejoin:miter;stroke-miterlimit:4;stroke-dasharray:none;stroke-dashoffset:0;stroke-opacity:1"
       id="path815"
       cx="13.245498"
       cy="283.81671"
       r="12.548462" />
    <path
       style="fill:#ffcc00;fill-opacity:0.83417089;stroke:#000000;stroke-width:0.24949302;stroke-linecap:butt;stroke-linejoin:miter;stroke-miterlimit:4;stroke-dasharray:none;stroke-opacity:1"
       d="m 15.379091,281.57968 c 2.177255,-1.05392 1.979728,-3.52787 2.770134,-5.54292 0.697362,2.26675 0.792313,4.6386 2.770133,5.54292 -2.458137,1.78164 -1.997758,3.31133 -2.770133,5.54294 -0.837477,-2.70245 -0.284711,-4.13963 -2.770134,-5.54294 z"
       id="path2257"
       inkscape:connector-curvature="0"
       sodipodi:nodetypes="ccccc" />
    <path
       style="fill:#ff0080;fill-opacity:1;stroke:#000000;stroke-width:0.24949302;stroke-linecap:butt;stroke-linejoin:miter;stroke-miterlimit:4;stroke-dasharray:none;stroke-opacity:1"
       d="m 13.689839,285.32441 c -0.446084,1.82095 -0.214064,2.76729 -2.303006,4.25329 2.210008,1.48724 1.508237,2.51514 2.303006,4.2533 0.892911,-1.77809 0.45822,-3.25288 2.303005,-4.2533 -2.089973,-1.32641 -1.726401,-2.55628 -2.303005,-4.25329 z"
       id="path2286"
       inkscape:connector-curvature="0"
       sodipodi:nodetypes="ccccc" />
    <path
       style="fill:#ff00ff;fill-opacity:0.45098039;stroke:#000000;stroke-width:0.24949302;stroke-linecap:butt;stroke-linejoin:miter;stroke-miterlimit:4;stroke-dasharray:none;stroke-opacity:1"
       d="m 6.9501611,287.10729 c 0.8027228,-0.38858 0.7298976,-1.30069 1.0213089,-2.0436 0.2571078,0.83571 0.2921148,1.71017 1.0213088,2.0436 -0.9062805,0.65686 -0.736545,1.22083 -1.0213088,2.04359 -0.3087659,-0.99636 -0.1049692,-1.52622 -1.0213089,-2.04359 z"
       id="path2257-9"
       inkscape:connector-curvature="0"
       sodipodi:nodetypes="ccccc" />
    <path
       style="fill:#ff00ff;fill-opacity:0.45098039;stroke:#000000;stroke-width:0.24949302;stroke-linecap:butt;stroke-linejoin:miter;stroke-miterlimit:4;stroke-dasharray:none;stroke-opacity:1"
       d="m 13.790221,275.73957 c 0.802723,-0.38857 0.729897,-1.30068 1.021308,-2.04359 0.257108,0.83571 0.292115,1.71017 1.02131,2.04359 -0.906281,0.65687 -0.736546,1.22084 -1.02131,2.0436 -0.308765,-0.99636 -0.104974,-1.52622 -1.021308,-2.0436 z"
       id="path2257-9-4"
       inkscape:connector-curvature="0"
       sodipodi:nodetypes="ccccc" />
    <path
       style="fill:#ff0052;fill-opacity:1;stroke:#000000;stroke-width:0.24949302;stroke-linecap:butt;stroke-linejoin:miter;stroke-miterlimit:4;stroke-dasharray:none;stroke-opacity:1"
       d="m 18.102527,288.95183 c 0.66791,-0.32332 0.607316,-1.08224 0.849786,-1.7004 0.213927,0.69536 0.243056,1.42296 0.849785,1.7004 -0.754075,0.54653 -0.612846,1.01579 -0.849785,1.70038 -0.256911,-0.82903 -0.08735,-1.26991 -0.849786,-1.70038 z"
       id="path2257-9-9"
       inkscape:connector-curvature="0"
       sodipodi:nodetypes="ccccc" />
    <path
       style="fill:#ffcc00;fill-opacity:0.83417089;stroke:#000000;stroke-width:0.24949302;stroke-linecap:butt;stroke-linejoin:miter;stroke-miterlimit:4;stroke-dasharray:none;stroke-opacity:1"
       d="m 5.1887346,280.29296 c -0.1919623,0.71228 -0.1069402,1.04954 -1.104011,1.63671 1.1549751,0.61832 0.7531526,0.98237 1.104011,1.63671 0.4396823,-0.69356 0.2581354,-1.28262 1.104011,-1.63671 -1.001888,-0.51043 -0.8275992,-0.98368 -1.104011,-1.63671 z"
       id="path2286-7"
       inkscape:connector-curvature="0"
       sodipodi:nodetypes="ccccc" />
  </g>
  <g
     inkscape:groupmode="layer"
     id="layer3"
     inkscape:label="star upper left">
    <path
       style="fill:#ff0052;fill-opacity:1;stroke:#000000;stroke-width:0.24949302;stroke-linecap:butt;stroke-linejoin:miter;stroke-miterlimit:4;stroke-dasharray:none;stroke-opacity:1"
       d="M 12.463817,9.0597468 C 10.925007,7.8755015 10.822035,6.2126446 10.316844,4.683858 9.950915,6.5404541 9.4233741,8.2131468 8.1698722,9.0597468 c 1.5976139,0.9657662 1.4813153,2.8893082 2.1469718,4.3758762 0.70215,-1.461805 0.480828,-3.140896 2.146973,-4.3758762 z"
       id="path2264"
       inkscape:connector-curvature="0"
       sodipodi:nodetypes="ccccc" />
  </g>
  <g
     inkscape:groupmode="layer"
     id="layer2"
     inkscape:label="star upper right" />
</svg>
