<svg width="93" height="62" version="1.1" viewBox="0 0 24.606 16.404" xmlns="http://www.w3.org/2000/svg">
 <path d="m21.496 6.3657c2.0619 0.26605 2.1836 1.5934 2.1865 2.3983v4.407c-0.18178 1.5714-1.1782 2.0328-2.1836 2.14h-9.6605c2.0806-1.0771 3.2052-2.4565 3.8458-3.9882h4.3895c1.0029-0.04456 0.88953-1.4223-0.0022-1.4245h-3.9882c0.7833-2.5788-0.30996-7.0668-4.1025-8.6606h10.171c2.3186 0.2215 2.0625 3.551 3.22e-4 3.7322h-3.7609c-0.6393 0.0058-0.87984 1.2557 0 1.3958z" fill="#818181" stroke="#000" stroke-width=".3416"/>
 <path d="m8.0916 0.98789a7.2202 7.2202 0 0 0-7.2202 7.2196 7.2202 7.2202 0 0 0 7.2202 7.2205 7.2202 7.2202 0 0 0 7.2199-7.2205 7.2202 7.2202 0 0 0-7.2199-7.2199zm0.05424 6.002a1.1682 1.1682 0 0 1 1.1679 1.1679 1.1682 1.1682 0 0 1-1.1679 1.1682 1.1682 1.1682 0 0 1-1.1682-1.1682 1.1682 1.1682 0 0 1 1.1682-1.1679z" fill="#cd87de" stroke="#000" stroke-linecap="round" stroke-width=".3416"/>
</svg>
