<svg xmlns="http://www.w3.org/2000/svg" viewBox="0 0 75 48" height="48mm" width="75mm"><path d="M66.21 18.326c6.386.824 6.763 4.935 6.772 7.428v13.649c-.563 4.867-3.649 6.296-6.763 6.628h-29.92c6.444-3.336 9.927-7.608 11.911-12.352h13.595c3.106-.138 2.755-4.405-.007-4.412H49.446c2.426-7.987-.96-21.887-12.706-26.823h31.5c7.181.686 6.388 10.998.001 11.559H56.593c-1.98.018-2.725 3.889 0 4.323z" fill="#818181" stroke="#000" stroke-width="1.058"/><path d="M24.696 1.67A22.362 22.362 0 002.334 24.03a22.362 22.362 0 0022.362 22.363A22.362 22.362 0 0047.057 24.03 22.362 22.362 0 0024.696 1.669zm.168 18.589a3.618 3.618 0 013.617 3.617 3.618 3.618 0 01-3.617 3.618 3.618 3.618 0 01-3.618-3.618 3.618 3.618 0 013.618-3.617z" fill="#fe0000" stroke="#000" stroke-width="1.058" stroke-linecap="round"/></svg>