<?xml version="1.0" encoding="UTF-8"?>
<svg width="30" height="30" version="1.1" viewBox="0 0 7.9375 7.9375" xmlns="http://www.w3.org/2000/svg">
 <g transform="translate(0 -289.06)">
  <path d="m6.8304 296.28c0.029171-0.0264-2.5116-0.97159-2.4724-0.97584 0.039143-4e-3 -2.2397 1.4639-2.2055 1.4835 0.034165 0.0196 0.14792-2.6889 0.16406-2.653 0.016136 0.0359-2.0844-1.6777-2.0924-1.6392-0.008056 0.0385 2.603-0.69022 2.5738-0.66378-0.029171 0.0265 0.95147-2.5008 0.91233-2.4966-0.039143 4e-3 1.4608 2.2623 1.4266 2.2427-0.034165-0.0196 2.6724 0.13212 2.6563 0.0962-0.016136-0.0359-1.7002 2.0884-1.6921 2.0499 0.00806-0.0385 0.70018 2.5824 0.72935 2.556z" fill="#fc0" stroke="#000" stroke-width=".16008"/>
 </g>
</svg>
