<svg class="jewel-svg" xmlns="http://www.w3.org/2000/svg" viewBox="0 0 120 120" height="120mm" width="120mm"><path class="trace-right" d="M62.263 90.828h0" fill="none" stroke="#000" stroke-width=".926" stroke-linecap="round"/><path class="trace-left-upper" d="M58.062 103.153l4.116-6.408" fill="none" stroke="#000" stroke-width=".926" stroke-linecap="round" stroke-dasharray="7.7" stroke-dashoffset="7.7"/><circle class="node-top" r="1.257" cy="90.457" cx="62.269" fill="gray"/><path class="b-bottom" d="M40.616 90.145l10.681-.087c4.823.184 7.163-7.788 0-8.598l-10.71.048" fill="none" stroke="#000" stroke-width="2.723" stroke-linecap="round"/><path class="b-top" d="M40.616 73.974l10.775.002c5.973.155 4.302 7.927-.094 7.484l-10.71.047" fill="none" stroke="#000" stroke-width="2.723" stroke-linecap="round"/><path class="ruby-top-1" d="M21.913 24.223c-1.847 2.328-3.704 4.65-5.544 6.985H29.04c2.223-4.407 4.442-8.816 6.683-13.214h-8.857c-1.65 2.077-3.302 4.153-4.954 6.229z" fill="#d40000"/><path class="ruby-bottom-3" d="M55.916 32.003c-2.717.124-5.561-.206-8.205.327 3.657 12.783 7.47 25.52 11.368 38.226 3.732-12.783 7.458-25.608 11.042-38.412-4.729-.2-9.472-.123-14.205-.14z" fill="red"/><path class="ruby-bottom-4" d="M81.574 32.098c-3.552.021-7.104.054-10.656.08-3.723 12.622-7.63 25.214-11.204 37.865 1.932-2.026 3.608-4.63 5.433-6.877 7.815-10.309 15.865-20.66 23.472-30.991-2.345-.12-4.698-.068-7.045-.077z" fill="#f06"/><path class="b-left" d="M40.17 76.951v12.852" fill="red" stroke="#000" stroke-width="2.428" stroke-linecap="round"/><path class="n-left" d="M62.242 90.931v0" fill="none" stroke="#000" stroke-width="2.723" stroke-linecap="round"/><path class="n-mid" d="M77.324 90.91h0" fill="none" stroke="#000" stroke-width="2.723" stroke-linecap="round"/><path class="n-right" d="M77.324 73.33v0" fill="none" stroke="#000" stroke-width="2.354" stroke-linecap="round"/><path d="M37.903 31.764l-8.387.034C39.22 44.491 48.788 57.29 58.572 69.92a5903.401 5903.401 0 00-11.258-36.555c-.273-.611-.338-1.802-1.305-1.555-2.701-.065-5.404-.05-8.106-.046z" fill="none"/><path d="M37.903 31.764l-8.387.034C39.22 44.491 48.788 57.29 58.572 69.92a5903.401 5903.401 0 00-11.258-36.555c-.273-.611-.338-1.802-1.305-1.555-2.701-.065-5.404-.05-8.106-.046z" fill="none"/><path class="ruby-bottom-1" d="M17.606 33.047C30.076 44.373 42.44 55.9 55.186 66.872c-1.88-3.39-4.814-6.566-7.121-9.841-6.306-8.314-12.619-16.623-18.928-24.935H16.655l.951.951z" fill="maroon"/><path class="ruby-bottom-2" d="M43.867 50.414c4.644 6.022 9.297 12.398 14.03 18.133-3.496-12.218-7.4-24.317-11.177-36.45H29.965l13.902 18.317z" fill="#d40000"/><path class="ruby-bottom-5" d="M76.66 48.84c-4.438 5.909-9.199 11.813-13.441 17.724 10.233-8.398 19.784-17.639 29.714-26.406 3.006-2.68 5.954-5.427 9.017-8.041l-12.489-.02L76.66 48.84z" fill="#d400aa"/><path class="ruby-top-2" d="M44.92 17.94c-2.786.033-5.571.084-8.357.125-2.172 4.335-4.7 8.656-6.592 13.038 5.626.385 11.282.047 16.919.058.852-4.305 2.274-8.715 2.738-12.978-1.517-.396-3.152-.187-4.708-.242z" fill="red"/><path class="ruby-star" d="M83.217 26.497c-.26-2.097-.429-3.002-.727-3.91-.572-1.736-1.618-2.852-3.28-3.5l-.652-.253.503-.164c.758-.248 1.237-.567 1.868-1.24 1.036-1.108 1.756-2.978 2.203-5.724.117-.72.24-1.308.272-1.308.032 0 .088.265.125.59.11.976.417 2.332.744 3.287.754 2.204 2.043 3.637 3.864 4.296l.583.212-.455.201c-.25.11-.473.202-.493.202-.194 0-1.376.898-1.82 1.383-1.035 1.13-1.528 2.45-2.082 5.575-.158.89-.322 1.714-.365 1.83-.055.15-.14-.288-.288-1.477z" fill="#fc0"/><path class="ruby-top-4" d="M68.845 17.929c-.328.032-.797-.056-1.05.043 1.012 4.528 2.033 9.053 3.077 13.573 6.04-.006 12.081.016 18.121-.02-1.373-2.696-2.751-5.407-4.17-8.068-.491 1.51-.633 3.12-1.006 4.666-.137.453-.166 1-.44 1.38-.585-2.124-.517-4.392-1.15-6.511-.414-1.404-1.34-2.711-2.722-3.285-.675-.372-1.455-.477-2.155-.769-.12-.25.366-.21.506-.253.768-.076 1.527-.302 2.174-.733-3.728-.009-7.456-.024-11.185-.023z" fill="red"/><path class="ruby-top-5" d="M89.424 17.925l-2.001.006c.686.402 1.463.582 2.204.832.203.306-.345.358-.527.424-1.805.549-3.372 1.961-3.943 3.803l4.35 8.556c4.256-.018 8.516.044 12.77-.055-3.597-4.54-7.234-9.048-10.851-13.571l-2.002.006z" fill="#f06"/><path class="ruby-top-3" d="M50.375 18.497c-.925 4.263-1.943 8.546-2.825 12.793 7.41.067 14.83.183 22.236-.067.8-.039-.11-1.228.003-1.698-.83-3.852-1.702-7.694-2.557-11.54l-16.73-.098-.127.61z" fill="red"/></svg>